<?xml version="1.0" encoding="UTF-8"?>
<svg width="53px" height="64px" viewBox="0 0 53 64" version="1.1" xmlns="http://www.w3.org/2000/svg" xmlns:xlink="http://www.w3.org/1999/xlink">
    <title>beach</title>
    <g id="Design" stroke="none" stroke-width="1" fill="none" fill-rule="evenodd">
        <g id="Landing-page-XL" transform="translate(-885.000000, -2353.000000)" fill="#22CBFF" fill-rule="nonzero">
            <g id="Особенности" transform="translate(60.000000, 2177.000000)">
                <g id="Group-3-Copy-4" transform="translate(795.000000, 146.000000)">
                    <g id="beach" transform="translate(30.000000, 30.000000)">
                        <path d="M36.34625,63.995125 L38.627,63.995125 C39.528,63.995125 40.260875,63.26225 40.260875,62.36125 L40.260875,53.712375 C40.975625,53.814375 41.632125,54.17275 42.105875,54.731625 L47.985625,61.66975 C48.9775,62.840625 50.72825,62.982625 51.895625,61.992625 C53.0655,61.001375 53.21,59.25225 52.2185,58.08275 L46.33875,51.1445 C44.717,49.2305 42.348,48.132875 39.83925,48.132875 L29.256125,48.132875 L29.256125,43.653125 L34.2875,43.653125 C34.805375,43.653125 35.225,43.2335 35.225,42.715625 C35.225,42.19775 34.805375,41.778125 34.2875,41.778125 L29.256125,41.778125 L29.256125,35.16225 C29.256125,34.644375 28.8365,34.22475 28.318625,34.22475 C27.80075,34.22475 27.381125,34.644375 27.381125,35.16225 L27.381125,41.778125 L25.582625,41.778125 L25.582625,24.346375 C25.58825,24.3485 25.594125,24.35 25.59975,24.352125 C25.877875,24.458 26.175875,24.51475 26.48175,24.51475 C26.78725,24.51475 27.085,24.458125 27.362875,24.352375 C27.36875,24.350125 27.375,24.348625 27.380875,24.346375 L27.380875,30.78725 C27.380875,31.305125 27.8005,31.72475 28.318375,31.72475 C28.83625,31.72475 29.255875,31.305125 29.255875,30.78725 L29.255875,22.7585 C30.417375,21.8005 31.875375,21.2735 33.389625,21.2735 C36.86325,21.2735 38.308375,23.6985 38.9495,24.115125 C38.952375,24.117 38.95525,24.118875 38.95825,24.12075 C39.982125,24.779875 41.38175,24.607375 42.202625,23.621 C44.27625,21.129 47.790625,20.59 50.475,22.15275 C51.822125,22.937 53.370875,21.484875 52.671875,20.0935 C51.06275,16.888625 48.899375,14.03125 46.242,11.600625 C45.86,11.251 45.267,11.277375 44.9175,11.65975 C44.568,12.04175 44.5945,12.63475 44.976625,12.98425 C47.230375,15.04575 49.104375,17.434625 50.557,20.096 C47.428375,18.732875 43.68475,19.378375 41.19625,21.942625 C40.442625,16.3725 38.162125,10.47825 34.0105,6.851875 C36.70575,7.62 39.27725,8.80225 41.642125,10.375375 C42.07325,10.662125 42.655125,10.545 42.941875,10.113875 C43.228625,9.682875 43.1115,9.100875 42.680375,8.814125 C38.647375,6.131625 34.053125,4.511125 29.255875,4.0595 L29.255875,2.77425 C29.256125,1.2445 28.011625,0 26.481875,0 C24.95225,0 23.70775,1.2445 23.70775,2.77425 L23.70775,4.060375 C13.347,5.039 4.675625,11.362875 0.291875,20.093375 C-0.407625,21.486125 1.143125,22.936 2.48875,22.15275 C5.170875,20.59125 8.68575,21.126875 10.761125,23.621 C11.766875,24.829625 13.598625,24.79 14.571,23.621 C15.764375,22.187125 17.575125,21.2735 19.574,21.2735 C21.032875,21.2735 22.49675,21.759875 23.707625,22.7585 L23.707625,41.778 L18.67625,41.778 C18.158375,41.778 17.73875,42.197625 17.73875,42.7155 C17.73875,43.233375 18.158375,43.653 18.67625,43.653 L23.707625,43.653 L23.707625,48.13275 L17.588125,48.13275 C16.642625,48.13275 15.745375,47.676875 15.188125,46.913 L7.94925,36.993 C7.04725,35.757125 5.308125,35.485375 4.07275,36.38725 C3.474125,36.824125 3.081375,37.468 2.967,38.200125 C2.852625,38.93225 3.03025,39.665125 3.467,40.26375 L10.705875,50.183625 C11.264375,50.948875 11.942125,51.606 12.702875,52.137625 L12.702875,62.361125 C12.702875,63.262125 13.43575,63.995125 14.336625,63.995125 L16.6175,63.995125 C17.5185,63.995125 18.251375,63.262125 18.251375,62.361125 L18.251375,53.681375 L23.7075,53.681375 L23.7075,62.361125 C23.7075,63.262125 24.440375,63.995125 25.34125,63.995125 L27.622125,63.995125 C28.523,63.995125 29.255875,63.262125 29.255875,62.361125 L29.255875,53.681375 L34.712,53.681375 L34.712,62.361125 C34.71225,63.26225 35.44525,63.995125 36.34625,63.995125 Z M13.675375,21.826 C14.75625,14.511875 18.70375,7.131625 24.7655,5.858125 C24.988625,5.84425 25.267625,5.83075 25.54425,5.82125 L25.54425,21.898125 C23.997875,20.326625 21.8445,19.398375 19.573875,19.398375 C17.371375,19.3985 15.232,20.279875 13.675375,21.826 L13.675375,21.826 Z M39.288375,21.826 C37.728,20.276 35.602125,19.398375 33.389875,19.398375 C31.162,19.398375 29.053375,20.277875 27.488875,21.832 C27.46525,21.855375 27.442625,21.879125 27.419375,21.902625 L27.419375,5.82125 C27.695625,5.83075 27.978,5.844375 28.198375,5.858125 C33.6405,7.0015 38.049125,13.439125 39.288375,21.826 L39.288375,21.826 Z M25.582625,2.77425 C25.582625,2.278375 25.986,1.875 26.48175,1.875 C26.9775,1.875 27.381,2.2785 27.381,2.77425 L27.381,3.943 C26.831,3.925875 26.227125,3.923 25.5825,3.943 L25.5825,2.77425 L25.582625,2.77425 Z M2.407,20.095875 C5.84975,13.791875 11.742875,8.90825 18.951,6.853875 C14.76575,10.511125 12.512,16.440625 11.7675,21.942625 C9.276875,19.37625 5.533125,18.734 2.407,20.095875 L2.407,20.095875 Z M38.385875,62.120125 L36.58725,62.120125 L36.58725,53.681375 L38.385875,53.681375 L38.385875,62.120125 Z M25.582625,43.653125 L27.381125,43.653125 L27.381125,48.132875 L25.582625,48.132875 L25.582625,43.653125 Z M4.98175,39.158625 C4.689375,38.758 4.7775,38.194375 5.178,37.902 C5.333625,37.788375 5.51725,37.728875 5.70625,37.728875 C5.753,37.728875 5.8,37.7325 5.847,37.739875 C6.08425,37.777 6.293,37.90425 6.434625,38.09825 L13.6735,48.01825 C14.5825,49.264 16.045875,50.00775 17.588125,50.00775 L39.83925,50.00775 C41.795875,50.00775 43.6435,50.863875 44.908375,52.3565 L50.788125,59.294875 C51.109375,59.674 51.062875,60.240625 50.68325,60.56225 C50.30475,60.883375 49.737625,60.836875 49.416,60.4575 L43.53625,53.519375 C42.613625,52.43075 41.266125,51.806375 39.83925,51.806375 C37.10775,51.806375 20.301375,51.806375 17.588125,51.806375 C15.489375,51.806375 13.46525,50.784125 12.220625,49.0785 L4.98175,39.158625 Z M14.577875,62.120125 L14.577875,53.128 C15.156,53.347 15.759,53.504 16.3765,53.5935 L16.3765,62.120125 L14.577875,62.120125 Z M27.381125,62.120125 L25.582625,62.120125 L25.582625,53.681375 L27.381125,53.681375 L27.381125,62.120125 Z" id="Shape"></path>
                    </g>
                </g>
            </g>
        </g>
    </g>
</svg>