<?xml version="1.0" encoding="UTF-8"?>
<svg width="47px" height="64px" viewBox="0 0 47 64" version="1.1" xmlns="http://www.w3.org/2000/svg" xmlns:xlink="http://www.w3.org/1999/xlink">
    <title>waiter</title>
    <g id="Design" stroke="none" stroke-width="1" fill="none" fill-rule="evenodd">
        <g id="Landing-page-XL" transform="translate(-488.000000, -2353.000000)" fill="#22CBFF" fill-rule="nonzero">
            <g id="Особенности" transform="translate(60.000000, 2177.000000)">
                <g id="Group-3-Copy-3" transform="translate(398.000000, 146.000000)">
                    <g id="waiter" transform="translate(30.000000, 30.000000)">
                        <g id="Group">
                            <path d="M38.049625,42.702375 C38.05025,42.702625 38.05075,42.70275 38.051125,42.70275 C38.05075,42.702625 38.05,42.7025 38.049625,42.702375 Z" id="Path"></path>
                            <path d="M43.46075,46.179625 L43.395625,45.85275 C42.552,41.62725 38.588625,40.908375 38.576125,40.902625 C38.29625,40.815125 40.218,41.38675 31.373875,38.778375 L28.90925,37.111625 L28.90925,35.559625 C32.88425,33.4815 35.56975,29.3205 35.56975,24.540625 L35.56975,24.367625 C38.697625,23.78975 40.169875,20.611375 38.359875,18.306625 C38.392625,18.141375 38.3715,18.287 38.378,15.236625 C38.378,7.081875 32.00225,0.396625 23.863125,0.017 C15.044875,-0.394875 7.905375,6.8125 7.905375,15.439875 C7.917625,18.15825 7.87825,18.063 7.939375,18.287125 C7.434375,18.922 7.1375,19.691625 7.1375,20.520875 C7.1375,22.409125 8.673375,23.990375 10.71375,24.367375 L10.71375,24.540375 C10.71375,29.30675 13.38425,33.45725 17.341,35.541375 L17.341,37.134 L14.935875,38.7605 C5.8445,41.442125 8.016125,40.807375 7.673875,40.9025 C7.60075,40.936 3.692625,41.654875 2.8545,45.853125 C-0.000125,60.192125 0.120875,59.575625 0.114,59.624 C-0.245125,62.158 1.09325,64 3.91475,64 L13.330875,64 C13.84875,64 14.268375,63.580375 14.268375,63.0625 C14.268375,62.544625 13.84875,62.125 13.330875,62.125 L10.525,62.125 L10.525,53.288375 C10.525,52.7705 10.105375,52.350875 9.5875,52.350875 C9.069625,52.350875 8.65,52.7705 8.65,53.288375 L8.65,62.125 C4.58575,62.006125 3.024625,62.44075 2.293625,61.59875 C1.864625,61.10475 1.91875,60.272125 1.96725,59.911375 L4.693375,46.22 C5.287125,43.2455 8.051875,42.770375 8.199875,42.7025 C8.201625,42.702 8.203375,42.7015 8.20525,42.700875 L14.63825,40.80325 C14.53525,41.2415 14.6,41.221125 14.581125,45.433125 C14.581125,46.623375 15.550625,47.552875 16.69925,47.552875 C17.447625,47.552875 17.588875,47.302125 21.694375,45.61125 C22.57875,46.18225 23.704,46.18275 24.589125,45.61125 C28.758375,47.328375 28.839375,47.552875 29.584375,47.552875 C30.73275,47.552875 31.7025,46.623625 31.7025,45.433125 C31.683875,41.129125 31.744375,41.234625 31.64775,40.813875 C37.239125,42.463125 38.008625,42.69025 38.0495,42.70225 C38.034625,42.697875 37.943125,42.670875 38.051,42.702625 C38.172625,42.758375 40.96025,43.23225 41.55675,46.21925 L41.62175,46.5455 C41.72275,47.053375 42.2165,47.383125 42.72425,47.282 C43.232125,47.180875 43.56175,46.687375 43.46075,46.179625 Z M35.56975,22.444 L35.56975,18.598 C37.83425,19.271125 37.832375,21.7715 35.56975,22.444 Z M10.7135,22.444 C8.44975,21.771125 8.4505,19.270625 10.7135,18.598 L10.7135,22.444 Z M10.77025,16.664625 C10.424375,16.7245 10.093125,16.81925 9.780375,16.943875 C9.883625,16.353375 8.978375,10.364125 14.00525,5.566 C22.47275,-2.514875 36.503,3.536875 36.503,15.236375 L36.503,16.943875 C36.190375,16.819125 35.859125,16.724375 35.513375,16.6645 C35.254625,15.305625 34.134,14.236875 32.7065,14.07625 C31.649875,13.957375 30.71825,13.182125 30.122625,12.552625 C29.57325,11.972 28.731,11.778875 27.977375,12.0605 C25.158375,13.114375 21.11175,13.11425 18.2935,12.068 C17.54175,11.789 16.70225,11.982125 16.1545,12.55975 C15.560875,13.1855 14.632125,13.956625 13.5795,14.076125 C12.15075,14.238125 11.029375,15.307 10.77025,16.664625 Z M12.588625,24.540375 C12.588625,21.989125 12.588625,19.827 12.588625,17.2655 C12.588625,16.587125 13.105375,16.01675 13.79075,15.939 C16.142875,15.672125 17.385,13.817 17.594125,13.817 C17.609375,13.817 17.625125,13.81975 17.64075,13.825625 C20.892,15.032625 25.390875,15.02875 28.63375,13.81675 C28.681125,13.79875 28.7295,13.808375 28.760375,13.841 C29.9395,15.087125 31.196375,15.793 32.49675,15.939375 C33.17975,16.01625 33.694875,16.58625 33.694875,17.265375 L33.694875,17.526125 C33.694875,18.5555 33.694875,23.6565 33.694875,24.540125 C33.694875,32.2865 25.6535,37.336875 18.709375,34.117 C14.90025,32.349875 12.588625,28.607 12.588625,24.540375 Z M28.819875,39.3145 C28.797875,39.323 28.77575,39.330875 28.753875,39.340125 L26.272875,40.3955 L28.05325,38.795875 L28.819875,39.3145 Z M19.874,40.273 C19.874125,40.273 19.874125,40.273 19.874,40.273 L20.011,40.395875 C19.1995,40.051125 17.576,39.358 17.4635,39.3145 L18.230125,38.796125 L19.874,40.273 Z M20.55625,44.057875 C16.7745,45.604375 16.787875,45.783875 16.565375,45.636625 C16.344,45.4905 16.513375,45.449875 16.456,41.290375 C16.456,41.1205 16.628625,40.99475 16.795375,41.065875 L20.55625,42.665875 C20.42725,43.144 20.44225,43.635875 20.55625,44.057875 Z M23.141625,44.1645 C22.875125,44.1645 22.221,43.828875 22.356875,43.19375 C22.492,42.561625 23.288875,42.341375 23.729875,42.817375 C24.225,43.382125 23.79625,44.1645 23.141625,44.1645 Z M23.146375,40.683875 C23.1445,40.683875 23.139125,40.683875 23.13725,40.683875 L19.215875,37.161 L19.215875,36.33875 C21.709625,37.16375 24.476875,37.188 27.034125,36.350125 L27.034125,37.191125 L23.146375,40.683875 Z M29.718,45.636625 C29.501625,45.7795 29.553875,45.622875 25.72725,44.05775 C25.843375,43.62775 25.8535,43.13325 25.72725,42.665625 C29.5165,41.115625 29.495875,40.939625 29.718,41.08675 C29.767875,41.11975 29.827375,41.18175 29.827375,41.290125 C29.769875,45.463 29.937375,45.491625 29.718,45.636625 Z" id="Shape"></path>
                        </g>
                        <circle id="Oval" cx="23.141875" cy="49.567875" r="1.017875"></circle>
                        <circle id="Oval" cx="23.141875" cy="53.93575" r="1.01775"></circle>
                        <circle id="Oval" cx="23.141875" cy="58.30225" r="1.01775"></circle>
                        <path d="M32.755875,52.997625 L27.8075,52.997625 C27.289625,52.997625 26.87,53.41725 26.87,53.935125 C26.87,54.453 27.289625,54.872625 27.8075,54.872625 L32.75575,54.872625 C33.273625,54.872625 33.69325,54.453 33.69325,53.935125 C33.69325,53.41725 33.27375,52.997625 32.755875,52.997625 Z" id="Path"></path>
                        <path d="M46.136125,59.624 C46.1295,59.577125 46.226625,60.07375 44.33175,50.55475 C44.230625,50.046875 43.736875,49.716875 43.229125,49.818375 C42.721375,49.9195 42.39175,50.413125 42.49275,50.921 L44.28275,59.91125 C44.490625,61.45825 43.854625,62.124875 42.33525,62.124875 L37.633625,62.124875 L37.633625,53.28825 C37.633625,52.770375 37.214,52.35075 36.696125,52.35075 C36.17825,52.35075 35.758625,52.770375 35.758625,53.28825 L35.758625,62.124875 L17.706125,62.124875 C17.18825,62.124875 16.768625,62.5445 16.768625,63.062375 C16.768625,63.58025 17.18825,63.999875 17.706125,63.999875 L42.335375,63.999875 C45.14725,63.999875 46.496375,62.167625 46.136125,59.624 Z" id="Path"></path>
                    </g>
                </g>
            </g>
        </g>
    </g>
</svg>