<?xml version="1.0" encoding="UTF-8"?>
<svg width="57px" height="64px" viewBox="0 0 57 64" version="1.1" xmlns="http://www.w3.org/2000/svg" xmlns:xlink="http://www.w3.org/1999/xlink">
    <title>birthday</title>
    <g id="Design" stroke="none" stroke-width="1" fill="none" fill-rule="evenodd">
        <g id="Landing-page-XL" transform="translate(-1282.000000, -2353.000000)" fill="#22CBFF" fill-rule="nonzero">
            <g id="Особенности" transform="translate(60.000000, 2177.000000)">
                <g id="Group-3-Copy-5" transform="translate(1192.000000, 146.000000)">
                    <g id="birthday" transform="translate(30.000000, 30.000000)">
                        <path d="M45.53075,7.30375 C45.021875,7.2025 44.529125,7.532 44.427875,8.03975 C44.326625,8.547625 44.656125,9.041375 45.163875,9.142625 C50.7735,10.261875 54.542375,15.905625 54.542375,23.1865 C54.542375,27.466125 53.28225,31.81925 51.085125,35.1295 C48.875625,38.458125 46.05475,40.291375 43.141875,40.291375 C41.7245,40.291375 40.331,39.857875 38.993,39.004875 C39.26475,38.69575 39.528625,38.383875 39.777625,38.066875 C42.093625,35.119 43.3555,31.889625 43.3305,28.97375 C43.30175,25.6025 41.578375,22.901 38.602625,21.561875 C35.988125,20.385625 33.68125,20.567375 31.833,21.23225 C32.43225,14.892875 35.962125,10.212 41.04675,9.158125 C41.553875,9.053 41.879625,8.556875 41.7745,8.05 C41.669375,7.543125 41.173,7.2165 40.666375,7.32225 C37.654625,7.946375 35.04075,9.67025 33.107375,12.3075 C31.165,14.957125 30.055625,18.367375 29.890125,22.1785 C29.262875,22.56775 28.7295,22.983125 28.304375,23.356875 C27.825125,23.77825 27.102375,23.778125 26.623375,23.357 C26.309375,23.080875 25.98325,22.822875 25.6505,22.585 C26.220875,20.489125 26.5255,18.289625 26.5255,16.11725 C26.5255,11.5475 25.163625,7.41575 22.691,4.483 C20.25375,1.592 16.90075,0 13.249875,0 C9.931375,0 6.801625,1.345125 4.4375,3.787625 C2.020625,6.28475 0.5195,9.733 0.096625,13.759625 C0.0425,14.2745 0.41625,14.735875 0.931125,14.789875 C1.4475,14.846 1.9075,14.470375 1.961375,13.955375 C2.72025,6.72975 7.25675,1.875 13.249875,1.875 C19.855875,1.875 24.650375,7.864625 24.650375,16.117125 C24.650375,20.29625 23.438125,24.575375 21.3245,27.857625 C21.04425,28.292875 21.169875,28.873 21.605125,29.153375 C21.762125,29.2545 21.938,29.30275 22.111875,29.30275 C22.42,29.30275 22.72175,29.151 22.901,28.87275 C23.76025,27.5385 24.482625,26.054875 25.050875,24.484 C25.163625,24.57525 25.275375,24.668375 25.38525,24.764875 C26.57025,25.806625 28.357375,25.806625 29.5425,24.764875 C31.335375,23.1885 34.229,21.6495 37.833,23.27175 C40.146375,24.312625 41.432875,26.343375 41.4555,28.98975 C41.476875,31.48175 40.35725,34.294 38.303125,36.9085 C35.936625,39.920625 32.418125,42.58025 28.12825,44.599625 C27.705875,44.798375 27.221625,44.798375 26.7995,44.599625 C22.849,42.74 19.528375,40.31725 17.186375,37.589875 C17.2055,37.3985 17.201875,37.203625 17.168,37.0095 L16.710125,34.396 C17.77725,33.959125 18.811875,33.323125 19.78525,32.496 C20.17975,32.160625 20.227875,31.569125 19.8925,31.174625 C19.55725,30.780125 18.965625,30.732 18.571125,31.067375 C16.912375,32.476875 15.072375,33.222 13.249875,33.222 C7.8145,33.222 2.746875,26.5095 1.9535,18.25875 C1.903875,17.74325 1.447,17.366375 0.9305,17.41525 C0.415125,17.46475 0.037375,17.922875 0.087,18.43825 C0.500625,22.738625 2.01,26.82275 4.33725,29.938375 C5.92675,32.066375 7.794875,33.5815 9.788625,34.398 L9.330875,37.010125 C9.222375,37.63175 9.393,38.26525 9.798875,38.748125 C10.204625,39.23075 10.798875,39.507625 11.4295,39.507625 L12.2565,39.507625 C12.169,39.91825 11.985125,40.19375 11.755625,40.536 C11.365875,41.11675 10.880875,41.83975 10.880875,43.19175 C10.880875,44.543875 11.365875,45.266875 11.7555,45.84775 C12.07875,46.3295 12.31225,46.677625 12.31225,47.459125 C12.31225,48.24075 12.07875,48.58875 11.7555,49.07075 C11.365875,49.6515 10.880875,50.3745 10.880875,51.726625 C10.880875,52.2445 11.3005,52.664125 11.818375,52.664125 C12.33625,52.664125 12.755875,52.2445 12.755875,51.726625 C12.755875,50.945125 12.989375,50.597 13.312625,50.11525 C13.70225,49.534375 14.18725,48.811375 14.18725,47.459125 C14.18725,46.107 13.70225,45.384 13.312625,44.803125 C12.989375,44.321375 12.755875,43.97325 12.755875,43.19175 C12.755875,42.410375 12.989375,42.062375 13.312625,41.580625 C13.642,41.08975 14.03825,40.49575 14.153375,39.507625 L15.069375,39.507625 C15.445875,39.507625 15.8085,39.407 16.12675,39.22475 C18.1865,41.508875 20.874375,43.57175 24.0045,45.280625 L23.5445,47.908625 C23.435875,48.5295 23.60625,49.162375 24.012,49.64525 C24.41775,50.128125 25.01225,50.405125 25.643,50.405125 L26.69125,50.405125 C26.622125,50.9145 26.4205,51.215875 26.1605,51.60325 C25.770875,52.184 25.285875,52.907 25.285875,54.259 C25.285875,55.611125 25.770875,56.334125 26.1605,56.915 C26.48375,57.39675 26.71725,57.744875 26.71725,58.526375 C26.71725,59.307875 26.48375,59.656 26.1605,60.13775 C25.770875,60.718625 25.285875,61.441625 25.285875,62.793875 C25.285875,63.31175 25.7055,63.731375 26.223375,63.731375 C26.74125,63.731375 27.160875,63.31175 27.160875,62.793875 C27.160875,62.01225 27.394375,61.66425 27.717625,61.18225 C28.10725,60.6015 28.59225,59.8785 28.59225,58.526375 C28.59225,57.17425 28.10725,56.45125 27.717625,55.870375 C27.394375,55.388625 27.160875,55.0405 27.160875,54.259 C27.160875,53.477625 27.394375,53.129625 27.717625,52.647875 C28.065375,52.1295 28.48825,51.496375 28.57525,50.405125 L29.283,50.405125 C29.914875,50.405125 30.509875,50.1275 30.915875,49.6435 C31.321125,49.160375 31.49075,48.527375 31.381375,47.9085 L30.921625,45.281125 C33.517375,43.865 35.801375,42.2115 37.681,40.38525 C38.333375,40.829875 39.00025,41.192125 39.6795,41.47075 L39.223125,44.07975 C39.1145,44.700625 39.284875,45.3335 39.690625,45.816375 C40.096375,46.29925 40.690875,46.57625 41.321625,46.57625 L42.14825,46.57625 C42.06075,46.98725 41.876875,47.262875 41.647125,47.60525 C41.2575,48.186 40.7725,48.909 40.7725,50.261 C40.7725,51.613125 41.2575,52.336125 41.647125,52.917 C41.970375,53.39875 42.203875,53.746875 42.203875,54.528375 C42.203875,55.309875 41.970375,55.658 41.647125,56.13975 C41.2575,56.720625 40.7725,57.443625 40.7725,58.79575 C40.7725,60.14775 41.2575,60.87075 41.647125,61.4515 C41.970375,61.93325 42.203875,62.28125 42.203875,63.062625 C42.203875,63.5805 42.6235,64.000125 43.141375,64.000125 C43.65925,64.000125 44.078875,63.5805 44.078875,63.062625 C44.078875,61.710625 43.593875,60.987625 43.20425,60.406875 C42.881,59.925125 42.6475,59.577125 42.6475,58.79575 C42.6475,58.01425 42.881,57.666125 43.20425,57.184375 C43.593875,56.6035 44.078875,55.8805 44.078875,54.528375 C44.078875,53.17625 43.593875,52.45325 43.20425,51.872375 C42.881,51.390625 42.6475,51.0425 42.6475,50.261 C42.6475,49.479625 42.881,49.131625 43.20425,48.649875 C43.533625,48.158875 43.930125,47.564625 44.045125,46.576125 L44.96175,46.576125 C45.5925,46.576125 46.187125,46.299125 46.592875,45.81625 C46.9985,45.333625 47.168875,44.7005 47.06025,44.079625 L46.6045,41.474375 C48.85525,40.558125 50.931375,38.750625 52.64675,36.166125 C55.04275,32.556375 56.416875,27.825375 56.416875,23.18625 C56.416875,14.985875 52.04225,8.603 45.53075,7.30375 Z M15.264875,37.541625 C15.230125,37.583125 15.167875,37.632625 15.069625,37.632625 L11.429625,37.632625 C11.331375,37.632625 11.26925,37.583125 11.23425,37.541625 C11.205625,37.507625 11.160125,37.434875 11.178,37.333 L11.5975,34.9385 C12.143625,35.04275 12.69525,35.097 13.249875,35.097 C13.802375,35.097 14.354,35.042875 14.9015,34.938 L15.321,37.33275 C15.338875,37.435 15.2935,37.507625 15.264875,37.541625 L15.264875,37.541625 Z M29.535125,48.233125 C29.552,48.32825 29.514375,48.39725 29.479875,48.4385 C29.45125,48.472625 29.3875,48.53 29.2835,48.53 L25.6435,48.53 C25.545125,48.53 25.482875,48.4805 25.448,48.438875 C25.419375,48.405 25.37425,48.33275 25.392,48.231625 L25.751875,46.17525 C25.83525,46.21525 25.91725,46.256625 26.00125,46.296125 C26.466125,46.514875 26.965,46.62425 27.464,46.62425 C27.963,46.62425 28.462,46.514875 28.926875,46.296125 C29.010625,46.25675 29.092,46.215375 29.17525,46.1755 L29.535125,48.233125 Z M45.213625,44.40275 C45.231375,44.504125 45.186125,44.57625 45.157625,44.610125 C45.12275,44.651625 45.0605,44.70125 44.962125,44.70125 L41.322125,44.70125 C41.22375,44.70125 41.1615,44.65175 41.126625,44.610125 C41.098,44.57625 41.052875,44.504 41.070625,44.40275 L41.48925,42.00975 C42.034625,42.11275 42.58575,42.16625 43.142,42.16625 C43.6985,42.16625 44.2505,42.11425 44.795625,42.011625 L45.213625,44.40275 Z" id="Shape"></path>
                    </g>
                </g>
            </g>
        </g>
    </g>
</svg>