<?xml version="1.0" encoding="UTF-8"?>
<svg width="98px" height="64px" viewBox="0 0 98 64" version="1.1" xmlns="http://www.w3.org/2000/svg" xmlns:xlink="http://www.w3.org/1999/xlink">
    <title>beach-2</title>
    <g id="Design" stroke="none" stroke-width="1" fill="none" fill-rule="evenodd">
        <g id="Landing-page-XL" transform="translate(-90.000000, -2353.000000)" fill="#22CBFF" fill-rule="nonzero">
            <g id="Особенности" transform="translate(60.000000, 2177.000000)">
                <g id="Group-3-Copy-2" transform="translate(0.000000, 146.000000)">
                    <g id="beach-2" transform="translate(30.000000, 30.000000)">
                        <path d="M96.0952381,45.8401905 C91.8822857,45.8401905 89.7497143,46.6653333 87.6872381,47.4632381 C85.7859048,48.1988571 83.9897143,48.8939048 80.3102857,48.8939048 C76.6306667,48.8939048 74.8346667,48.1990476 72.9331429,47.4632381 C70.8708571,46.6653333 68.7382857,45.8401905 64.5251429,45.8401905 C60.3146667,45.8401905 58.1834286,46.6655238 56.1222857,47.4634286 C54.2222857,48.1990476 52.427619,48.8939048 48.7510476,48.8939048 C45.0729524,48.8939048 43.2777143,48.1990476 41.3771429,47.4634286 C39.3154286,46.6653333 37.183619,45.8401905 32.972,45.8401905 C28.7617143,45.8401905 26.6304762,46.6655238 24.5693333,47.4634286 C22.6693333,48.1990476 20.8748571,48.8939048 17.1982857,48.8939048 C13.5228571,48.8939048 11.7287619,48.1990476 9.82933333,47.4634286 C7.7687619,46.6653333 5.63809524,45.8401905 1.42857143,45.8401905 C0.639619048,45.8401905 -5.41365894e-15,46.4798095 -5.41365894e-15,47.2687619 C-5.41365894e-15,48.0577143 0.639619048,48.6973333 1.42857143,48.6973333 C5.104,48.6973333 6.89790476,49.3921905 8.79752381,50.1278095 C10.8580952,50.9259048 12.9887619,51.7510476 17.1982857,51.7510476 C21.4085714,51.7510476 23.5398095,50.9257143 25.6009524,50.1278095 C27.5009524,49.3921905 29.2954286,48.6973333 32.972,48.6973333 C36.6499048,48.6973333 38.4451429,49.3921905 40.3457143,50.1278095 C42.4074286,50.9259048 44.5394286,51.7510476 48.7510476,51.7510476 C52.9615238,51.7510476 55.0927619,50.9257143 57.1539048,50.1278095 C59.0539048,49.3921905 60.8485714,48.6973333 64.5251429,48.6973333 C68.2045714,48.6973333 70.0007619,49.3921905 71.9020952,50.128 C73.9645714,50.9259048 76.0971429,51.7510476 80.3102857,51.7510476 C84.5234286,51.7510476 86.6558095,50.9259048 88.7182857,50.128 C90.619619,49.392381 92.4158095,48.6973333 96.0952381,48.6973333 C96.8841905,48.6973333 97.5238095,48.0577143 97.5238095,47.2687619 C97.5238095,46.4798095 96.8841905,45.8401905 96.0952381,45.8401905 Z" id="Path"></path>
                        <path d="M89.7939048,54.2895238 C89.5100952,53.5533333 88.6828571,53.1866667 87.9470476,53.4704762 L87.6866667,53.5710476 C86.8266667,53.9038095 86.0142857,54.2180952 85.047619,54.4691429 C84.284,54.667619 83.8257143,55.4474286 84.024,56.2110476 C84.1910476,56.8542857 84.7706667,57.2807619 85.4057143,57.2807619 C85.5247619,57.2807619 85.6455238,57.2657143 85.7659048,57.2344762 C86.892,56.9419048 87.82,56.5828571 88.7177143,56.2354286 L88.9746667,56.1361905 C89.7108571,55.852381 90.0777143,55.0255238 89.7939048,54.2895238 Z" id="Path"></path>
                        <path d="M79.3510476,54.9847619 C76.3032381,54.8748571 74.6662857,54.2415238 72.9331429,53.5708571 C70.8706667,52.7729524 68.7380952,51.9478095 64.5251429,51.9478095 C60.3146667,51.9478095 58.1834286,52.7731429 56.1222857,53.5710476 C54.2222857,54.3066667 52.427619,55.0015238 48.7510476,55.0015238 C45.0729524,55.0015238 43.2779048,54.3066667 41.3771429,53.5708571 C39.3154286,52.7729524 37.183619,51.947619 32.972,51.947619 C28.7617143,51.947619 26.6304762,52.7729524 24.5693333,53.5708571 C22.840381,54.240381 21.2072381,54.8725714 18.1718095,54.984 C17.3832381,55.0129524 16.767619,55.675619 16.7965714,56.464 C16.8255238,57.2525714 17.488381,57.8664762 18.2765714,57.8392381 C21.791619,57.7102857 23.728381,56.960381 25.6011429,56.2352381 C27.5011429,55.499619 29.295619,54.8047619 32.9721905,54.8047619 C36.6500952,54.8047619 38.4453333,55.499619 40.3459048,56.2354286 C42.407619,57.0333333 44.539619,57.8586667 48.7512381,57.8586667 C52.9617143,57.8586667 55.0929524,57.0333333 57.1540952,56.2354286 C59.0540952,55.4998095 60.8487619,54.8049524 64.5253333,54.8049524 C68.2047619,54.8049524 70.0009524,55.4998095 71.9022857,56.235619 C73.7794286,56.9619048 75.720381,57.7129524 79.2481905,57.8401905 C80.031619,57.8681905 80.6988571,57.2525714 80.7272381,56.464 C80.755619,55.6754286 80.1394286,55.0131429 79.3510476,54.9847619 Z" id="Path"></path>
                        <path d="M64.5251429,58.0554286 C60.3146667,58.0554286 58.1834286,58.8807619 56.1222857,59.6786667 C54.2222857,60.4142857 52.427619,61.1091429 48.7510476,61.1091429 C45.0729524,61.1091429 43.2779048,60.4142857 41.3771429,59.6786667 C39.3154286,58.8805714 37.183619,58.0554286 32.972,58.0554286 C32.1830476,58.0554286 31.5434286,58.6950476 31.5434286,59.484 C31.5434286,60.2729524 32.1830476,60.9125714 32.972,60.9125714 C36.6499048,60.9125714 38.4451429,61.6074286 40.3459048,62.3430476 C42.407619,63.1411429 44.5394286,63.9662857 48.7510476,63.9662857 C52.9615238,63.9662857 55.0927619,63.1409524 57.1539048,62.3430476 C59.0539048,61.6074286 60.8485714,60.9125714 64.5251429,60.9125714 C65.3140952,60.9125714 65.9537143,60.2729524 65.9537143,59.484 C65.9537143,58.6950476 65.3140952,58.0554286 64.5251429,58.0554286 Z" id="Path"></path>
                        <path d="M12.4782857,54.4725714 C11.5059048,54.2205714 10.6908571,53.9047619 9.828,53.5704762 C9.09238095,53.2855238 8.2647619,53.6508571 7.97980952,54.3864762 C7.69485714,55.1222857 8.06019048,55.9497143 8.79580952,56.2346667 C9.6967619,56.583619 10.628381,56.9445714 11.7613333,57.2382857 C11.8815238,57.2695238 12.0020952,57.284381 12.1207619,57.284381 C12.756,57.284381 13.3358095,56.8573333 13.5026667,56.2139048 C13.7007619,55.4500952 13.2420952,54.6706667 12.4782857,54.4725714 Z" id="Path"></path>
                        <path d="M67.4822857,26.6070476 C63.2142857,20.4845714 56.2161905,16.8293333 48.7620952,16.8293333 C36.1874286,16.8293333 25.9571415,27.0594286 25.9571415,39.6342857 C25.9571415,40.1769524 25.9761905,40.7245714 26.0142857,41.2619048 C26.0674286,42.0146667 26.6946667,42.5899048 27.4379048,42.5899048 C27.4718095,42.5899048 27.5057143,42.5887619 27.54,42.5862857 C28.3270476,42.5306667 28.92,41.847619 28.864381,41.0605714 C28.8310476,40.5897143 28.8142857,40.1099048 28.8142857,39.6342857 C28.8142857,28.6350476 37.7626667,19.6864762 48.7620952,19.6864762 C55.2822857,19.6864762 61.404381,22.884381 65.1382857,28.2409524 C65.5895238,28.888 66.4798095,29.0468571 67.1272381,28.596 C67.7744762,28.1447619 67.9333333,27.2542857 67.4822857,26.6070476 Z" id="Path"></path>
                        <path d="M19.7512381,38.2059048 L10.5899048,38.2059048 C9.80095238,38.2059048 9.16133333,38.8455238 9.16133333,39.6344762 C9.16133333,40.4234286 9.80095238,41.0630476 10.5899048,41.0630476 L19.7512381,41.0630476 C20.5401905,41.0630476 21.1798095,40.4234286 21.1798095,39.6344762 C21.1798095,38.8455238 20.5401905,38.2059048 19.7512381,38.2059048 Z" id="Path"></path>
                        <path d="M48.7619048,0.0337142857 C47.9729524,0.0337142857 47.3333333,0.673333333 47.3333333,1.46228571 L47.3333333,10.623619 C47.3333333,11.4127619 47.9729524,12.0521905 48.7619048,12.0521905 C49.5508571,12.0521905 50.1904762,11.4125714 50.1904762,10.623619 L50.1904762,1.46228571 C50.1904762,0.673333333 49.5508571,0.0337142857 48.7619048,0.0337142857 Z" id="Path"></path>
                        <path d="M76.7638095,11.6325714 C76.2059048,11.0746667 75.3013333,11.0746667 74.743619,11.6325714 L68.2655238,18.1106667 C67.707619,18.6685714 67.707619,19.5731429 68.2655238,20.1308571 C68.544381,20.4097143 68.9099048,20.5493333 69.275619,20.5493333 C69.6411429,20.5493333 70.0068571,20.4099048 70.2857143,20.1308571 L76.7638095,13.6527619 C77.3217143,13.0948571 77.3217143,12.1902857 76.7638095,11.6325714 Z" id="Path"></path>
                        <path d="M38.9798095,12.2853333 L37.8112381,9.464 C37.5093333,8.73504762 36.6737143,8.38914286 35.9447619,8.69085714 C35.2158095,8.9927619 34.8697143,9.82857143 35.171619,10.5573333 L36.3401905,13.3786667 C36.568,13.9287619 37.1,14.2609524 37.6605714,14.2609524 C37.8428571,14.2609524 38.028,14.2259048 38.2066667,14.1518095 C38.935619,13.8499048 39.2817143,13.0140952 38.9798095,12.2853333 Z" id="Path"></path>
                        <path d="M79.7055238,26.8173333 C79.403619,26.0885714 78.568,25.7422857 77.8390476,26.0441905 L75.0177143,27.2127619 C74.2887619,27.5144762 73.9426667,28.3502857 74.2445714,29.0792381 C74.472381,29.6293333 75.004381,29.9615238 75.5649524,29.9615238 C75.7472381,29.9615238 75.932381,29.9264762 76.1110476,29.852381 L78.932381,28.6838095 C79.6613333,28.3819048 80.0074286,27.5460952 79.7055238,26.8173333 Z" id="Path"></path>
                        <path d="M61.5790476,8.69085714 C60.8502857,8.38895238 60.0144762,8.73504762 59.7125714,9.464 L58.544,12.2853333 C58.2420952,13.0140952 58.5881905,13.8497143 59.3171429,14.1518095 C59.4958095,14.2259048 59.6811429,14.2609524 59.8632381,14.2609524 C60.4238095,14.2609524 60.9558095,13.9287619 61.183619,13.3786667 L62.3521905,10.5573333 C62.6540952,9.82838095 62.308,8.9927619 61.5790476,8.69085714 Z" id="Path"></path>
                        <path d="M22.5060952,27.2125714 L19.6847619,26.044 C18.955619,25.7420952 18.1201905,26.0881905 17.8182857,26.8171429 C17.516381,27.5460952 17.8624762,28.3817143 18.5914286,28.683619 L21.4127619,29.8521905 C21.591619,29.9262857 21.7767619,29.9613333 21.9588571,29.9613333 C22.5194286,29.9613333 23.0514286,29.6291429 23.2792381,29.0790476 C23.5811429,28.3500952 23.2350476,27.5144762 22.5060952,27.2125714 Z" id="Path"></path>
                        <path d="M72.7558095,33.1889524 C71.955619,33.1889524 71.1674286,33.3099048 70.4026667,33.5495238 C68.7238095,32.256381 66.6860952,31.5531429 64.5761905,31.5531429 C59.2780952,31.5531429 54.9678095,35.8634286 54.9678095,41.1613333 C54.9678095,41.9502857 55.6074286,42.5899048 56.396381,42.5899048 L79.299619,42.5899048 C80.0885714,42.5899048 80.7281905,41.9502857 80.7281905,41.1613333 C80.7281905,36.7653333 77.1518095,33.1889524 72.7558095,33.1889524 Z M57.9769524,39.7327619 C58.6342857,36.6940952 61.343619,34.4102857 64.5761905,34.4102857 C66.2613333,34.4102857 67.8853333,35.055619 69.1491429,36.2274286 C69.5674286,36.6150476 70.175619,36.7167619 70.6973333,36.4866667 C71.3594286,36.1942857 72.052,36.0460952 72.7558095,36.0460952 C75.0807619,36.0460952 77.048381,37.6051429 77.6681905,39.7327619 L57.9769524,39.7327619 L57.9769524,39.7327619 Z" id="Shape"></path>
                    </g>
                </g>
            </g>
        </g>
    </g>
</svg>