<?xml version="1.0" encoding="UTF-8"?>
<svg width="32px" height="32px" viewBox="0 0 32 32" version="1.1" xmlns="http://www.w3.org/2000/svg" xmlns:xlink="http://www.w3.org/1999/xlink">
    <title> 2</title>
    <g id="Design" stroke="none" stroke-width="1" fill="none" fill-rule="evenodd">
        <g id="Landing-page-XS" transform="translate(-328.000000, -34.000000)" fill="#FFFFFF" fill-rule="nonzero">
            <g id="1й-блок">
                <g id="-2" transform="translate(328.000000, 34.000000)">
                    <path d="M26.1736334,32 C26.4523044,32 26.7792069,31.8924731 27.1543408,31.6774194 C27.5294748,31.4623656 27.9421222,31.1397849 28.392283,30.7096774 C28.86388,30.2795699 29.2711683,29.8870968 29.6141479,29.5322581 C29.9571275,29.1774194 30.2357985,28.8602151 30.4501608,28.5806452 C30.6859593,28.3010753 30.8896034,28.0537634 31.0610932,27.8387097 C31.2325831,27.6236559 31.3612004,27.4408602 31.4469453,27.2903226 C31.6613076,26.9677419 31.8113612,26.6505376 31.8971061,26.3387097 C31.982851,26.0268817 32.0150054,25.7204301 31.9935691,25.4193548 C31.9506967,25.1397849 31.8649518,24.8817204 31.7363344,24.6451613 C31.607717,24.4086022 31.4362272,24.2150538 31.221865,24.0645161 C30,23.2043011 28.8531618,22.4139785 27.7813505,21.6935484 C26.7095391,20.9731183 25.6913183,20.3225806 24.7266881,19.7419355 C24.5766345,19.655914 24.4212219,19.5913978 24.2604502,19.5483871 C24.0996785,19.5053763 23.9228296,19.483871 23.7299035,19.483871 C23.494105,19.483871 23.2422294,19.5215054 22.9742765,19.5967742 C22.7063237,19.672043 22.4437299,19.7849462 22.1864952,19.9354839 C21.9721329,20.0430108 21.6237942,20.2311828 21.1414791,20.5 C20.659164,20.7688172 20.0535906,21.1182796 19.3247588,21.5483871 C18.7031083,21.0967742 18.0010718,20.5215054 17.2186495,19.8225806 C16.4362272,19.1236559 15.5734191,18.3010753 14.6302251,17.3548387 C13.7084673,16.4301075 12.8992497,15.5698925 12.2025723,14.7741935 C11.505895,13.9784946 10.9324759,13.2580645 10.4823151,12.6129032 C10.8896034,11.8602151 11.221865,11.2473118 11.4790997,10.7741935 C11.7363344,10.3010753 11.9185423,9.95698925 12.0257235,9.74193548 C12.3043944,9.24731183 12.4598071,8.78494624 12.4919614,8.35483871 C12.5241158,7.92473118 12.4330118,7.53763441 12.2186495,7.19354839 C11.3826367,5.88172043 10.6055734,4.68817204 9.88745981,3.61290323 C9.1693462,2.53763441 8.51018221,1.58064516 7.90996785,0.741935484 C7.7170418,0.483870968 7.48660236,0.295698925 7.21864952,0.177419355 C6.95069668,0.0591397849 6.64523044,0 6.3022508,0 C6.00214362,0 5.72347267,0.0376344086 5.46623794,0.112903226 C5.20900322,0.188172043 4.9624866,0.311827957 4.7266881,0.483870968 C4.55519829,0.612903226 4.35155413,0.76344086 4.11575563,0.935483871 C3.87995713,1.10752688 3.63344051,1.29032258 3.37620579,1.48387097 C3.09753483,1.69892473 2.78670954,1.97311828 2.4437299,2.30645161 C2.10075027,2.63978495 1.71489818,3.04301075 1.28617363,3.51612903 C0.857449089,3.98924731 0.535905681,4.41397849 0.321543408,4.79032258 C0.107181136,5.16666667 0,5.50537634 0,5.80645161 C0.0428724544,6.90322581 0.278670954,8.06989247 0.707395498,9.30645161 C1.13612004,10.5430108 1.76312969,11.8387097 2.58842444,13.1935484 C3.41371919,14.5483871 4.43193998,15.9677419 5.64308682,17.4516129 C6.85423365,18.9354839 8.26366559,20.483871 9.87138264,22.0967742 C11.4790997,23.688172 13.022508,25.0967742 14.5016077,26.3225806 C15.9807074,27.5483871 17.3954984,28.5698925 18.7459807,29.3870968 C20.096463,30.2043011 21.3826367,30.8333333 22.6045016,31.2741935 C23.8263666,31.7150538 24.9946409,31.9569892 26.1093248,32 L26.1093248,32 L26.1736334,32 Z M26.1093248,30 C25.1446945,29.9354839 24.1103966,29.6989247 23.0064309,29.2903226 C21.9024652,28.8817204 20.7341908,28.2903226 19.5016077,27.516129 C18.2690247,26.7419355 16.9721329,25.7849462 15.6109325,24.6451613 C14.249732,23.5053763 12.8188639,22.1827957 11.318328,20.6774194 C9.81779207,19.172043 8.49946409,17.7365591 7.36334405,16.3709677 C6.22722401,15.0053763 5.2733119,13.7043011 4.50160772,12.4677419 C3.72990354,11.2311828 3.14040729,10.0645161 2.73311897,8.96774194 C2.32583065,7.87096774 2.10075027,6.83870968 2.05787781,5.87096774 C2.1221865,5.67741935 2.26688103,5.44086022 2.49196141,5.16129032 C2.7170418,4.88172043 3.02250804,4.5483871 3.40836013,4.16129032 C3.79421222,3.77419355 4.19078242,3.40322581 4.59807074,3.0483871 C5.00535906,2.69354839 5.42336549,2.3655914 5.85209003,2.06451613 C5.91639871,2.02150538 5.98606645,1.98924731 6.06109325,1.96774194 C6.13612004,1.94623656 6.21650589,1.93548387 6.3022508,1.93548387 L6.3022508,1.93548387 L6.36655949,1.93548387 C6.98821008,2.83870968 7.63665595,3.80645161 8.31189711,4.83870968 C8.98713826,5.87096774 9.69989282,6.97849462 10.4501608,8.16129032 C10.4501608,8.24731183 10.4340836,8.34408602 10.4019293,8.4516129 C10.3697749,8.55913978 10.3215434,8.67741935 10.2572347,8.80645161 C10.1500536,9 9.96784566,9.32795699 9.71061093,9.79032258 C9.45337621,10.2526882 9.12111468,10.8602151 8.71382637,11.6129032 L8.71382637,11.6129032 L8.07073955,12.7419355 L8.84244373,13.7419355 C9.31404073,14.4301075 9.91425509,15.188172 10.6430868,16.016129 C11.3719185,16.844086 12.2186495,17.7526882 13.1832797,18.7419355 C14.1693462,19.7311828 15.0750268,20.5967742 15.9003215,21.3387097 C16.7256163,22.0806452 17.4812433,22.688172 18.1672026,23.1612903 L18.1672026,23.1612903 L19.2282958,23.8709677 L20.2893891,23.2258065 C21.039657,22.8172043 21.6505895,22.483871 22.1221865,22.2258065 C22.5937835,21.9677419 22.9153269,21.7849462 23.0868167,21.6774194 C23.2154341,21.6129032 23.3333333,21.5645161 23.4405145,21.5322581 C23.5476956,21.5 23.6441586,21.483871 23.7299035,21.483871 C24.5659164,22.0215054 25.5037513,22.6344086 26.5434084,23.3225806 C27.5830654,24.0107527 28.7245445,24.7956989 29.9678457,25.6774194 C29.9892819,25.7419355 29.9892819,25.811828 29.9678457,25.8870968 C29.9464094,25.9623656 29.903537,26.0430108 29.8392283,26.1290323 C29.5176849,26.5591398 29.1854234,26.983871 28.8424437,27.4032258 C28.4994641,27.8225806 28.1350482,28.2258065 27.7491961,28.6129032 C27.3633441,29 27.0310825,29.311828 26.7524116,29.5483871 C26.4737406,29.7849462 26.2593783,29.9354839 26.1093248,30 Z" id=""></path>
                </g>
            </g>
        </g>
    </g>
</svg>