<?xml version="1.0" encoding="UTF-8"?>
<svg width="16px" height="32px" viewBox="0 0 16 32" version="1.1" xmlns="http://www.w3.org/2000/svg" xmlns:xlink="http://www.w3.org/1999/xlink">
    <title></title>
    <g id="Design" stroke="none" stroke-width="1" fill="none" fill-rule="evenodd">
        <g id="Landing-page-XL" transform="translate(-23.000000, -632.000000)" fill="#FFFFFF" fill-rule="nonzero">
            <g id="Group-5" transform="translate(0.000000, -1.000000)">
                <path d="M31.9628009,665 C32.5022287,665 32.9690413,664.800875 33.3632385,664.402624 C33.7574358,664.004373 33.9545344,663.514632 33.9545344,662.933401 L33.9545344,649.532795 L36.2885971,649.532795 C36.7450361,649.532795 37.1496069,649.392869 37.5023097,649.113017 C37.8550126,648.833165 38.0936056,648.477968 38.218089,648.047427 L38.9027474,644.947528 C39.0064835,644.624622 39.0272307,644.307097 38.9649891,643.994955 C38.9027474,643.682812 38.778264,643.397578 38.591539,643.139253 C38.404814,642.859401 38.1714077,642.649512 37.8913202,642.509586 C37.6112327,642.36966 37.3155847,642.299697 37.0043764,642.299697 L33.9545344,642.299697 L33.9545344,640.265388 L35.9462679,640.265388 C36.4856958,640.265388 36.9525083,640.060881 37.3467056,639.651867 C37.7409028,639.242852 37.9380015,638.758493 37.9380015,638.198789 L37.9380015,635.09889 L37.9380015,635.09889 C37.9380015,634.517659 37.7460896,634.027918 37.362266,633.629667 C36.9784423,633.231416 36.5168166,633.032291 35.9773888,633.032291 L33.4254802,633.032291 C33.3839857,633.032291 33.3424913,633.026909 33.3009968,633.016145 C33.2595024,633.005382 33.2180079,633 33.1765135,633 C32.8238107,633 32.3258773,633.059199 31.6827133,633.177598 C31.0395494,633.295997 30.3860118,633.559704 29.7221007,633.968718 C29.0996839,634.356206 28.4876408,634.985873 27.8859713,635.857719 C27.2843018,636.729566 26.9834671,637.961991 26.9834671,639.554995 L26.9834671,642.299697 L24.9917335,642.299697 C24.7220196,642.299697 24.4678661,642.353515 24.229273,642.46115 C23.99068,642.568786 23.7780209,642.719475 23.5912959,642.913219 C23.4045709,643.106963 23.2593403,643.327615 23.1556042,643.575177 C23.0518681,643.822738 23,644.086445 23,644.366297 L23,647.466196 C23,648.0259 23.1970986,648.510259 23.5912959,648.919273 C23.9854932,649.328288 24.4523057,649.532795 24.9917335,649.532795 L26.9834671,649.532795 L26.9834671,662.933401 C26.9834671,663.514632 27.1753789,664.004373 27.5592025,664.402624 C27.9430262,664.800875 28.4150255,665 28.9752006,665 L31.9628009,665 Z M31.9628009,662.965691 L28.9752006,662.965691 L28.9752006,647.466196 L24.9917335,647.466196 L24.9917335,644.366297 L28.9752006,644.366297 L28.9752006,639.554995 L28.9752006,639.554995 C28.9752006,637.445341 29.5716833,636.169862 30.7646487,635.728557 C31.9576141,635.287252 32.761569,635.066599 33.1765135,635.066599 C33.2387552,635.066599 33.2854364,635.071981 33.3165573,635.082745 C33.3476781,635.093508 33.3632385,635.09889 33.3632385,635.09889 L35.9462679,635.09889 L35.9462679,638.198789 L33.3632385,638.198789 C32.6578329,638.198789 32.2480752,638.408678 32.1339655,638.828456 C32.0198557,639.248234 31.9628009,639.458123 31.9628009,639.458123 L31.9628009,644.366297 L37.0043764,644.366297 L36.2885971,647.466196 L31.9628009,647.466196 L31.9628009,662.965691 Z" id=""></path>
            </g>
        </g>
    </g>
</svg>