<?xml version="1.0" encoding="UTF-8"?>
<svg width="36px" height="49px" viewBox="0 0 36 49" version="1.1" xmlns="http://www.w3.org/2000/svg" xmlns:xlink="http://www.w3.org/1999/xlink">
    <title></title>
    <g id="Design" stroke="none" stroke-width="1" fill="none" fill-rule="evenodd">
        <g id="Landing-page-XL" transform="translate(-753.000000, -6478.000000)" fill="#061C28" fill-rule="nonzero">
            <g id="Контакты" transform="translate(0.000000, 6276.000000)">
                <g id="Снимок-экрана-2020-06-01-в-12.08.19">
                    <path d="M771.65625,250.230769 C772.28125,250.230769 772.828125,250.035457 773.296875,249.644832 C773.765625,249.254207 774,249.043269 774,249.012019 C775.53125,247.262019 777.171875,245.262019 778.921875,243.012019 C780.671875,240.762019 782.296875,238.379207 783.796875,235.863582 C785.296875,233.347957 786.539062,230.785457 787.523438,228.176082 C788.507812,225.566707 789,223.012019 789,220.512019 C789,218.043269 788.601562,215.699519 787.804688,213.480769 C787.007812,211.262019 785.851562,209.316707 784.335938,207.644832 C782.820312,205.972957 780.953125,204.652644 778.734375,203.683894 C776.515625,202.715144 774,202.230769 771.1875,202.230769 C768.71875,202.230769 766.382812,202.715144 764.179688,203.683894 C761.976562,204.652644 760.046875,205.972957 758.390625,207.644832 C756.734375,209.316707 755.421875,211.262019 754.453125,213.480769 C753.484375,215.699519 753,218.043269 753,220.512019 C753,223.105769 753.539062,225.699519 754.617188,228.293269 C755.695312,230.887019 757.039062,233.410457 758.648438,235.863582 C760.257812,238.316707 762.007812,240.652644 763.898438,242.871394 C765.789062,245.090144 767.546875,247.137019 769.171875,249.012019 C769.171875,249.043269 769.398438,249.254207 769.851562,249.644832 C770.304688,250.035457 770.859375,250.230769 771.515625,250.230769 L771.65625,250.230769 Z M771.5625,247.183894 L771.375,246.996394 L771.375,246.996394 L770.578125,246.105769 C769.046875,244.324519 767.421875,242.410457 765.703125,240.363582 C763.984375,238.316707 762.40625,236.191707 760.96875,233.988582 C759.53125,231.785457 758.34375,229.543269 757.40625,227.262019 C756.46875,224.980769 756,222.730769 756,220.512019 C756,218.449519 756.40625,216.488582 757.21875,214.629207 C758.03125,212.769832 759.125,211.144832 760.5,209.754207 C761.875,208.363582 763.484375,207.262019 765.328125,206.449519 C767.171875,205.637019 769.125,205.230769 771.1875,205.230769 C773.75,205.230769 775.960938,205.668269 777.820312,206.543269 C779.679688,207.418269 781.21875,208.574519 782.4375,210.012019 C783.65625,211.449519 784.554688,213.082332 785.132812,214.910457 C785.710938,216.738582 786,218.605769 786,220.512019 C786,222.199519 785.703125,224.019832 785.109375,225.972957 C784.515625,227.926082 783.625,230.004207 782.4375,232.207332 C781.25,234.410457 779.765625,236.746394 777.984375,239.215144 C776.203125,241.683894 774.125,244.277644 771.75,246.996394 C771.75,247.027644 771.726562,247.058894 771.679688,247.090144 C771.632812,247.121394 771.59375,247.152644 771.5625,247.183894 Z M771.046875,229.277644 C773.546875,229.277644 775.671875,228.402644 777.421875,226.652644 C779.171875,224.902644 780.046875,222.777644 780.046875,220.277644 C780.046875,217.808894 779.171875,215.691707 777.421875,213.926082 C775.671875,212.160457 773.546875,211.277644 771.046875,211.277644 C768.578125,211.277644 766.460938,212.160457 764.695312,213.926082 C762.929688,215.691707 762.046875,217.808894 762.046875,220.277644 C762.046875,222.777644 762.929688,224.902644 764.695312,226.652644 C766.460938,228.402644 768.578125,229.277644 771.046875,229.277644 Z M771.046875,226.277644 C769.390625,226.277644 767.96875,225.683894 766.78125,224.496394 C765.59375,223.308894 765,221.887019 765,220.230769 C765,218.574519 765.585938,217.160457 766.757812,215.988582 C767.929688,214.816707 769.34375,214.230769 771,214.230769 C772.65625,214.230769 774.070312,214.816707 775.242188,215.988582 C776.414062,217.160457 777,218.574519 777,220.230769 C777,221.887019 776.421875,223.308894 775.265625,224.496394 C774.109375,225.683894 772.703125,226.277644 771.046875,226.277644 Z" id=""></path>
                </g>
            </g>
        </g>
    </g>
</svg>