<?xml version="1.0" encoding="UTF-8"?>
<svg width="9px" height="14px" viewBox="0 0 9 14" version="1.1" xmlns="http://www.w3.org/2000/svg" xmlns:xlink="http://www.w3.org/1999/xlink">
    <title></title>
    <g id="Design" stroke="none" stroke-width="1" fill="none" fill-rule="evenodd">
        <g id="Kit" transform="translate(-375.000000, -824.000000)" fill="#FFFFFF" fill-rule="nonzero" stroke="#FFFFFF">
            <g id="Group-9-Copy" transform="translate(355.000000, 807.000000)">
                <path d="M21.4462659,30 C21.4972678,30 21.5503947,29.9902248 21.6056466,29.9706745 C21.6608986,29.9511241 21.7097753,29.9217986 21.7522769,29.8826979 L21.7522769,29.8826979 L27.8724954,24.2404692 C27.9574985,24.1622678 28,24.0684262 28,23.9589443 C28,23.8494624 27.9574985,23.7556207 27.8724954,23.6774194 L27.8724954,23.6774194 L21.8415301,18.1173021 C21.756527,18.0391007 21.6523983,18 21.5291439,18 C21.4058895,18 21.3017608,18.0391007 21.2167577,18.1173021 C21.1317547,18.1955034 21.0892532,18.2913001 21.0892532,18.4046921 C21.0892532,18.5180841 21.1317547,18.6138807 21.2167577,18.6920821 L21.2167577,18.6920821 L26.9544627,23.9589443 L21.1275046,29.3196481 C21.0425015,29.3978495 21,29.4916911 21,29.601173 C21,29.7106549 21.0425015,29.8044966 21.1275046,29.8826979 C21.1700061,29.9217986 21.2188828,29.9511241 21.2741348,29.9706745 C21.3293868,29.9902248 21.3867638,30 21.4462659,30 Z" id=""></path>
            </g>
        </g>
    </g>
</svg>