<?xml version="1.0" encoding="UTF-8"?>
<svg width="20px" height="20px" viewBox="0 0 20 20" version="1.1" xmlns="http://www.w3.org/2000/svg" xmlns:xlink="http://www.w3.org/1999/xlink">
    <title></title>
    <g id="Design" stroke="none" stroke-width="1" fill="none" fill-rule="evenodd">
        <g id="Landing-page-XL" transform="translate(-21.000000, -684.000000)" fill="#FFFFFF" fill-rule="nonzero">
            <g id="Group-5" transform="translate(0.000000, -1.000000)">
                <path d="M35.1272683,704.934087 C36.7287005,704.855969 38.1478558,704.491415 39.3196354,703.319635 C40.4914151,702.147856 40.8559688,700.7287 40.9340874,699.127268 C41.012206,697.747172 40.9991863,696.380096 40.9991863,695 C40.9991863,693.619904 41.012206,692.252828 40.9340874,690.872732 C40.8559688,689.2713 40.4914151,687.852144 39.3196354,686.680365 C38.1478558,685.508585 36.7287005,685.144031 35.1272683,685.065913 C33.7471723,684.987794 32.380096,685.000814 31,685.000814 C29.619904,685.000814 28.2528277,684.987794 26.8727317,685.065913 C25.2712995,685.144031 23.8521442,685.508585 22.6803646,686.680365 C21.5085849,687.852144 21.1440312,689.2713 21.0659126,690.872732 C21.0073236,691.907804 21,692.935552 21,693.966962 L21.0008137,695 C21.0008137,696.380096 20.987794,697.747172 21.0659126,699.127268 C21.1440312,700.7287 21.5085849,702.147856 22.6803646,703.319635 C23.8521442,704.491415 25.2712995,704.855969 26.8727317,704.934087 C28.2528277,705.012206 29.619904,704.999186 31,704.999186 C32.380096,704.999186 33.7471723,705.012206 35.1272683,704.934087 Z M25.1020425,702.798844 C24.6463504,702.616568 24.3078363,702.395232 23.9563024,702.043698 C23.6047685,701.692164 23.3834323,701.35365 23.2011555,700.897958 C22.6803646,699.58296 22.7975425,696.458215 22.7975425,695 C22.7975425,693.541785 22.6803646,690.41704 23.2011555,689.102042 C23.3834323,688.64635 23.6047685,688.307836 23.9563024,687.956302 C24.3078363,687.604768 24.6463504,687.383432 25.1020425,687.201156 C26.4170396,686.680365 29.5417853,686.797543 31,686.797543 C32.4582147,686.797543 35.5829604,686.680365 36.8979575,687.201156 C37.3536496,687.383432 37.6921637,687.604768 38.0436976,687.956302 C38.3952315,688.307836 38.6165677,688.64635 38.7988445,689.102042 C39.3196354,690.41704 39.2024575,693.541785 39.2024575,695 C39.2024575,696.458215 39.3196354,699.58296 38.7988445,700.897958 C38.6165677,701.35365 38.3952315,701.692164 38.0436976,702.043698 C37.6921637,702.395232 37.3536496,702.616568 36.8979575,702.798844 C35.5829604,703.319635 32.4582147,703.202457 31,703.202457 C29.5417853,703.202457 26.4170396,703.319635 25.1020425,702.798844 Z M36.3381073,690.859712 C37.0021157,690.859712 37.5359264,690.325901 37.5359264,689.661893 C37.5359264,688.997884 37.0021157,688.464074 36.3381073,688.464074 C35.6740988,688.464074 35.1402881,688.997884 35.1402881,689.661893 C35.1402881,690.325901 35.6740988,690.859712 36.3381073,690.859712 Z M31,700.129791 C33.8383107,700.129791 36.1297909,697.838311 36.1297909,695 C36.1297909,692.161689 33.8383107,689.870209 31,689.870209 C28.1616893,689.870209 25.8702091,692.161689 25.8702091,695 C25.8702091,697.838311 28.1616893,700.129791 31,700.129791 Z M31,698.333062 C29.1642119,698.333062 27.6669379,696.835788 27.6669379,695 C27.6669379,693.164212 29.1642119,691.666938 31,691.666938 C32.8357881,691.666938 34.3330621,693.164212 34.3330621,695 C34.3330621,696.835788 32.8357881,698.333062 31,698.333062 Z" id=""></path>
            </g>
        </g>
    </g>
</svg>