<?xml version="1.0" encoding="UTF-8"?>
<svg width="183px" height="120px" viewBox="0 0 183 120" version="1.1" xmlns="http://www.w3.org/2000/svg" xmlns:xlink="http://www.w3.org/1999/xlink">
    <title>1white</title>
    <g id="Design" stroke="none" stroke-width="1" fill="none" fill-rule="evenodd">
        <g id="Landing-page-XL" transform="translate(-30.000000, -20.000000)" fill-rule="nonzero">
            <g id="Group-5" transform="translate(0.000000, -1.000000)">
                <g id="1white" transform="translate(30.000000, 21.000000)">
                    <polygon id="Path" fill="#FFF2DE" points="5.328 99.52 1.004 89.872 0.988 89.84 0 89.84 5.28 101.668 5.328 101.776 10.636 89.916 10.672 89.84 9.664 89.84"></polygon>
                    <rect id="Rectangle" fill="#FFF2DE" x="16.808" y="89.84" width="1" height="11.664"></rect>
                    <polygon id="Path" fill="#FFF2DE" points="25.696 89.84 24.788 89.84 24.788 101.504 32.184 101.504 32.184 100.596 25.696 100.596"></polygon>
                    <polygon id="Path" fill="#FFF2DE" points="39.58 89.84 38.672 89.84 38.672 101.504 46.068 101.504 46.068 100.596 39.58 100.596"></polygon>
                    <path d="M57.32,89.62 L51.832,101.428 L51.796,101.504 L52.8,101.504 L54.168,98.572 L60.248,98.572 L61.532,101.472 L61.532,101.504 L62.524,101.504 L57.352,89.732 L57.32,89.62 Z M57.284,91.856 L59.848,97.66 L54.596,97.66 L57.284,91.856 Z" id="Shape" fill="#FFF2DE"></path>
                    <polygon id="Path" fill="#FFF2DE" points="82.436 99.52 78.112 89.872 78.096 89.84 77.108 89.84 82.384 101.668 82.436 101.776 87.744 89.916 87.78 89.84 86.772 89.84"></polygon>
                    <rect id="Rectangle" fill="#FFF2DE" x="93.916" y="89.84" width="1" height="11.664"></rect>
                    <path d="M110.94,98.836 C110.469045,99.4135758 109.878036,99.8817418 109.208,100.208 C107.728794,100.924178 105.989793,100.855158 104.572,100.024 C103.818602,99.5773322 103.192056,98.9452786 102.752,98.188 C101.850794,96.6188579 101.850794,94.6891421 102.752,93.12 C103.190911,92.3618447 103.817715,91.72953 104.572,91.284 C105.328773,90.8365091 106.192837,90.6028663 107.072,90.608 C107.762556,90.6090932 108.444745,90.7591749 109.072,91.048 C109.705109,91.3367619 110.270616,91.7551007 110.732,92.276 L110.768,92.316 L111.472,91.696 L111.436,91.652 C110.874025,91.0411791 110.193527,90.5512205 109.436,90.212 C107.71513,89.4365271 105.724541,89.5469496 104.1,90.508 C103.204123,91.0297088 102.460728,91.7772406 101.944,92.676 C100.893266,94.5251617 100.893266,96.7908383 101.944,98.64 C102.459208,99.5430477 103.202711,100.294827 104.1,100.82 C105.781375,101.811723 107.847598,101.895814 109.604,101.044 C110.401846,100.659151 111.102061,100.098431 111.652,99.404 L111.684,99.36 L110.972,98.8 L110.94,98.836 Z" id="Path" fill="#FFF2DE"></path>
                    <polygon id="Path" fill="#FFF2DE" points="116.968 90.768 121.556 90.768 121.556 101.504 122.48 101.504 122.48 90.768 127.052 90.768 127.052 89.84 116.968 89.84"></polygon>
                    <path d="M140.676,90.516 C138.845346,89.4494587 136.582654,89.4494587 134.752,90.516 C132.923906,91.5900236 131.801202,93.5517513 131.801202,95.672 C131.801202,97.7922487 132.923906,99.7539764 134.752,100.828 C136.582654,101.894541 138.845346,101.894541 140.676,100.828 C142.504094,99.7539764 143.626798,97.7922487 143.626798,95.672 C143.626798,93.5517513 142.504094,91.5900236 140.676,90.516 L140.676,90.516 Z M137.712,100.700067 C136.834167,100.704609 135.971528,100.470978 135.216,100.024 C134.463812,99.5792766 133.83742,98.9501313 133.396,98.196 C132.494262,96.6341434 132.494262,94.7098566 133.396,93.148 C133.831835,92.3949707 134.452796,91.7657487 135.2,91.32 C136.743296,90.4183742 138.652704,90.4183742 140.196,91.32 C140.946454,91.7629258 141.569357,92.3927193 142.004,93.148 C142.900002,94.7113887 142.900002,96.6326113 142.004,98.196 C141.569357,98.9512807 140.946454,99.5810742 140.196,100.024 C139.443895,100.468703 138.585738,100.702243 137.712,100.700067 L137.712,100.700067 Z" id="Shape" fill="#FFF2DE"></path>
                    <path d="M154.524,96.376 C154.901975,96.3269256 155.270228,96.2203615 155.616,96.06 C156.176628,95.8148003 156.662399,95.4256314 157.024,94.932 C157.415627,94.4202102 157.625361,93.7924159 157.62,93.148 C157.61981,92.72158 157.524136,92.3006142 157.34,91.916 C157.14838,91.5106714 156.876176,91.1486399 156.54,90.852 C156.172845,90.5218536 155.744868,90.2664258 155.28,90.1 C154.782847,89.9247411 154.25913,89.8367784 153.732,89.8399146 L149.64,89.8399146 L149.64,101.504 L150.548,101.504 L150.548,90.748 L153.728,90.748 C154.273884,90.7380043 154.814244,90.8586939 155.304,91.1 C155.723834,91.3030451 156.083618,91.6118256 156.348,91.996 C156.583831,92.3342022 156.712091,92.7357114 156.716,93.148 C156.71452,93.59865 156.560885,94.0355922 156.28,94.388 C156.010098,94.7478194 155.657483,95.0373202 155.252,95.232 C154.575581,95.4762106 153.858722,95.5888986 153.14,95.564 L151.6,95.564 L156.472,101.484 L156.472,101.484 L157.672,101.484 L153.496,96.416 C153.839132,96.4207855 154.182277,96.4074336 154.524,96.376 L154.524,96.376 Z" id="Path" fill="#FFF2DE"></path>
                    <rect id="Rectangle" fill="#FFF2DE" x="164.392" y="89.84" width="1" height="11.664"></rect>
                    <path d="M177.012,89.732 L176.964,89.62 L171.472,101.428 L171.436,101.504 L172.444,101.504 L173.816,98.572 L179.896,98.572 L181.176,101.472 L181.176,101.504 L182.164,101.504 L177.012,89.732 Z M176.924,91.856 L179.492,97.66 L174.236,97.66 L176.924,91.856 Z" id="Shape" fill="#FFF2DE"></path>
                    <path d="M91.852,32.636 L90.68,29.632 L89.504,32.636 L81.344,11.74 C80.0986164,8.78969104 77.3799228,6.72287466 74.204,6.312 C69.5987853,6.91818084 66.2050957,10.9198357 66.3591526,15.5622192 C66.5132094,20.2046027 70.1647292,23.9724633 74.8,24.272 C74.996,24.272 75.2,24.272 75.392,24.272 L75.392,24.84 C75.176,24.84 74.96,24.832 74.744,24.816 C67.944,24.48 63.444,20.688 63.444,15.244 C63.4452002,12.4944454 64.6253027,9.87738013 66.6851916,8.05614156 C68.7450805,6.23490299 71.4870122,5.38432491 74.216,5.72 C74.6061261,5.67161961 74.9988857,5.6475731 75.392,5.64799441 C79.2481625,5.64860886 82.7297034,7.95650818 84.232,11.508 L90.684,28.08 L94.968,17.168 C95.012,17.044 96.128,14.04 98.66,14.04 L98.72,14.04 L99.12,14.04 L91.852,32.636 Z M76.456,6.296 C78.8970364,7.23051097 80.8514866,9.1199572 81.868,11.528 L89.504,31.084 L90.4,28.856 L83.696,11.74 C82.4355903,8.75670759 79.6719391,6.67862511 76.456,6.296 L76.456,6.296 Z M90.984,28.856 L91.856,31.08 L98.292,14.632 C96.408,14.924 95.492,17.34 95.492,17.368 L90.984,28.856 Z M71.964,6.296 C67.4229915,6.84036876 64.0039136,10.6904805 64,15.264 C64,19.228 66.44,22.2 70.512,23.528 C67.3388737,21.6537492 65.5187633,18.1284614 65.8281982,14.4561602 C66.1376331,10.7838589 68.5219859,7.61284686 71.964,6.296 L71.964,6.296 Z" id="Shape" fill="#22CBFF"></path>
                    <path d="M61.2,43.8520669 C58.8864195,43.8611467 56.6680348,42.9316478 55.052,41.276 C53.1086005,39.3306989 52.0926556,36.6454349 52.2617025,33.9009092 C52.4307493,31.1563835 53.7685578,28.6160971 55.936,26.924 C56.1850793,26.615147 56.4522127,26.3213003 56.736,26.044 C59.4602894,23.3082198 63.56145,22.4769461 67.136,23.936 L83.412,31.068 L78.676,20.32 C78.62,20.204 77.264,17.24 79.12,15.456 L79.412,15.176 L87.412,33.464 L84.46,32.168 L85.748,35.124 L65.2,26.12 C62.2348389,24.9102056 58.8501658,25.3671822 56.312,27.32 C53.4732188,31.0049442 53.8990023,36.2436547 57.2955916,39.4218104 C60.6921809,42.5999662 65.9475998,42.677102 69.436,39.6 C69.58,39.472 69.724,39.336 69.868,39.2 L70.268,39.6 C70.116,39.752 69.96,39.9 69.8,40.04 C67.016,42.568 64,43.8520669 61.2,43.8520669 Z M54.724,28.904 C51.8997029,32.4998705 52.203566,37.6380758 55.432,40.876 C58.232,43.676 62.064,44.052 65.884,42.116 C62.3176714,43.0322196 58.5415194,41.8278645 56.1642155,39.0159996 C53.7869116,36.2041348 53.2273855,32.2802686 54.724,28.916 L54.724,28.904 Z M61.816,24.904 C63.0499595,24.9064849 64.2720062,25.1454629 65.416,25.608 L84.64,34.036 L83.684,31.844 L66.872,24.456 C63.8701314,23.2362512 60.4445278,23.7219141 57.9,25.728 C59.132059,25.177172 60.4664146,24.8923096 61.816,24.892 L61.816,24.904 Z M84.128,31.416 L86.316,32.376 L79.236,16.192 C78.108,17.728 79.18,20.076 79.192,20.1 L84.128,31.416 Z" id="Shape" fill="#22CBFF"></path>
                    <path d="M67.488,65.6 C64.7384454,65.5987998 62.1213801,64.4186973 60.3001416,62.3588084 C58.478903,60.2989195 57.6283249,57.5569878 57.964,54.828 C57.9156196,54.4378739 57.8915731,54.0451143 57.8919944,53.652 C57.8926089,49.7958375 60.2005082,46.3142966 63.752,44.812 L80.304,38.36 L69.388,34.072 C69.264,34.028 66.212,32.872 66.264,30.32 L66.264,29.92 L84.856,37.2 L81.856,38.372 L84.856,39.552 L63.964,47.708 C61.0136912,48.9542685 58.9459819,51.6721338 58.532,54.848 C59.1271728,59.4621247 63.1313053,62.8684204 67.7811669,62.7162206 C72.4310284,62.5640207 76.2038381,58.9031691 76.496,54.26 C76.496,54.064 76.496,53.86 76.496,53.668 L77.06,53.668 C77.06,53.884 77.06,54.1 77.06,54.316 C76.72,61.092 72.932,65.6 67.488,65.6 Z M58.52,57.076 C59.0643688,61.6170085 62.9144805,65.0360864 67.488,65.04 C71.452,65.04 74.424,62.6 75.752,58.532 C73.8770748,61.7048901 70.351253,63.524337 66.6788839,63.214044 C63.0065149,62.9037509 59.8359646,60.5185011 58.52,57.076 Z M81.08,38.676 L63.964,45.356 C60.9807076,46.6164097 58.9026251,49.3800609 58.52,52.596 C59.454511,50.1549636 61.3439572,48.2005134 63.752,47.184 L83.304,39.548 L81.08,38.676 Z M66.856,30.748 C67.144,32.632 69.564,33.548 69.588,33.548 L81.08,38.056 L83.304,37.2 L66.856,30.748 Z" id="Shape" fill="#22CBFF"></path>
                    <path d="M86.712,76.8000454 C83.7556887,76.8039809 80.9635597,75.4411385 79.148,73.108 C78.8364925,72.8677333 78.5411839,72.6071669 78.264,72.328 C75.5296081,69.6028088 74.6999348,65.5017622 76.16,61.928 L83.292,45.652 L72.544,50.34 C72.428,50.396 69.464,51.752 67.68,49.896 L67.4,49.604 L85.684,41.604 L84.4,44.58 L87.356,43.292 L78.348,63.832 C77.1407208,66.7974807 77.5975225,70.1808591 79.548,72.72 C83.2293796,75.5997383 88.5000056,75.1935603 91.6966859,71.783768 C94.8933662,68.3739757 94.9590128,63.0881296 91.848,59.6 L91.448,59.156 L91.848,58.756 C92.004,58.912 92.156,59.072 92.3,59.24 C96.848,64.276 97.356,70.14 93.5,73.988 C91.7042675,75.7951364 89.2596136,76.8078598 86.712,76.8000454 Z M81.112,74.3 C84.7062918,77.1390971 89.8566938,76.8382559 93.096,73.6 C95.896,70.8 96.272,66.984 94.352,63.176 C94.546222,63.953062 94.6442892,64.7510334 94.644,65.552 C94.6415625,68.8044871 92.992453,71.8345443 90.2624765,73.6025676 C87.5324999,75.3705909 84.0929776,75.6361002 81.124,74.308 L81.112,74.3 Z M84.044,45.328 L76.68,62.172 C75.4606998,65.1720324 75.9447646,68.5956071 77.948,71.14 C76.8820525,68.7527801 76.8358259,66.0340785 77.82,63.612 L86.248,44.4 L84.044,45.328 Z M68.4,49.804 C69.932,50.932 72.284,49.86 72.308,49.848 L83.624,44.912 L84.58,42.724 L68.4,49.804 Z" id="Shape" fill="#22CBFF"></path>
                    <path d="M108.236,71.1480075 C107.842889,71.1483034 107.450137,71.1242573 107.06,71.076 C106.669874,71.1243804 106.277114,71.1484269 105.884,71.1480075 C102.027838,71.1473911 98.5462966,68.8394918 97.044,65.288 L90.58,48.736 L86.296,59.652 C86.252,59.772 85.132,62.78 82.604,62.78 L82.54,62.78 L82.14,62.78 L89.416,44.192 L90.584,47.192 L91.784,44.192 L99.944,65.084 C101.188934,68.0353441 103.907492,70.1035801 107.084,70.516 C111.681958,69.9017993 115.067039,65.9043587 114.915283,61.2680422 C114.763526,56.6317256 111.124281,52.8642062 106.496,52.552 L105.904,52.532 L105.904,51.96 C106.12,51.96 106.336,51.96 106.552,51.96 C113.352,52.3 117.848008,56.092 117.848008,61.536 C117.85119,64.0862374 116.839524,66.532941 115.036233,68.3362326 C113.232941,70.1395242 110.786237,71.1511898 108.236,71.1480075 L108.236,71.1480075 Z M110.752,53.288 C113.925126,55.1622508 115.745237,58.6875386 115.435802,62.3598398 C115.126367,66.0321411 112.742014,69.2031531 109.3,70.52 C113.839496,69.9758148 117.258064,66.1279935 117.264,61.556 C117.264,57.6 114.824,54.616 110.752,53.288 Z M90.884,47.96 L97.568,65.076 C98.8270199,68.0570105 101.587046,70.1346632 104.8,70.52 C102.358964,69.585489 100.404513,67.6960428 99.388,65.288 L91.76,45.736 L90.884,47.96 Z M89.408,45.736 L82.972,62.184 C84.852,61.896 85.772,59.476 85.772,59.452 L90.28,47.96 L89.408,45.736 Z" id="Shape" fill="#22CBFF"></path>
                    <path d="M101.852,61.644 L93.852,43.356 L96.804,44.652 L95.512,41.692 L116.056,50.7 C119.021693,51.9056072 122.404211,51.4489215 124.944,49.5 C127.813874,45.8187961 127.404426,40.5568838 123.99965,37.3639326 C120.594873,34.1709815 115.317533,34.0999041 111.828,37.2 L111.396,37.6 L110.996,37.2 C111.148,37.048 111.304,36.9 111.464,36.76 C116.504,32.2 122.376,31.688 126.228,35.56 C129.971403,39.3080646 129.971403,45.3799354 126.228,49.128 C125.94933,49.4118276 125.65415,49.6789589 125.344,49.928 C125.10142,50.2375909 124.840977,50.5327594 124.564,50.812 C121.836005,53.5408866 117.739279,54.3712614 114.164,52.92 L97.892,45.784 L102.576,56.532 C102.632,56.652 103.992,59.612 102.136,61.396 L101.852,61.644 Z M94.948,44.444 L102.028,60.624 C103.152,59.092 102.084,56.74 102.072,56.716 L97.136,45.4 L94.948,44.444 Z M97.568,44.972 L114.4,52.36 C117.401869,53.5797488 120.827472,53.0940859 123.372,51.088 C120.986155,52.1589506 118.265924,52.2066486 115.844,51.22 L96.608,42.8 L97.568,44.972 Z M117.784,34.4 C121.035392,34.4030421 124.064279,36.0516147 125.832075,38.7804341 C127.599872,41.5092536 127.866299,44.9474158 126.54,47.916 C129.364297,44.3201295 129.060434,39.1819242 125.832,35.944 C123.032,33.144 119.2,32.744 115.38,34.704 C116.165277,34.5015348 116.973043,34.399388 117.784,34.4 Z" id="Shape" fill="#22CBFF"></path>
                    <path d="M114.992,46.904 L96.4,39.632 L99.404,38.46 L96.404,37.26 L117.296,29.104 C120.23675,27.8638909 122.303733,25.1626681 122.732,22 C122.117799,17.4020419 118.120359,14.0169608 113.484042,14.1687173 C108.847726,14.3204738 105.080206,17.9597186 104.768,22.588 C104.768,22.784 104.768,22.988 104.748,23.18 L104.184,23.18 C104.184,22.964 104.184,22.748 104.204,22.536 C104.54,15.736 108.332,11.236 113.776,11.236 C119.077934,11.236 123.376006,15.5340664 123.376006,20.836 C123.376427,21.2291143 123.35238,21.6218739 123.304,22.012 C123.821129,26.2632104 121.459858,30.3428088 117.516,32.012 L100.96,38.46 L111.876,42.744 C111.996,42.788 115.052,43.944 115,46.5 L114.992,46.904 Z M97.96,39.632 L114.4,46.068 C114.112,44.188 111.692,43.268 111.668,43.268 L100.184,38.764 L97.96,39.632 Z M97.96,37.28 L100.184,38.156 L117.3,31.472 C120.284358,30.2129549 122.362982,27.4485835 122.744,24.232 C121.8104,26.6745475 119.920833,28.6305672 117.512,29.648 L97.96,37.28 Z M113.776,13.56 C117.757677,13.560892 121.325528,16.0195581 122.744,19.74 C122.199631,15.1989915 118.349519,11.7799136 113.776,11.776 C109.812,11.776 106.84,14.22 105.512,18.288 C107.236071,15.3608076 110.378815,13.562781 113.776,13.56 L113.776,13.56 Z" id="Shape" fill="#22CBFF"></path>
                    <path d="M95.6,35.2 L96.892,32.244 L93.936,33.536 L102.92,12.984 C104.129794,10.0188389 103.672818,6.63416576 101.72,4.096 C98.0380211,1.26979926 92.813313,1.69450282 89.6361269,5.07826808 C86.4589407,8.46203334 86.3637644,13.7031104 89.416,17.2 C89.552,17.348 89.692,17.496 89.816,17.64 L89.416,18.04 C89.26,17.884 89.108,17.724 88.964,17.56 C84.412,12.524 83.908,6.656 87.764,2.812 C89.708653,0.869529133 92.3926449,-0.146223199 95.1361018,0.022040119 C97.8795587,0.190303438 100.419303,1.52644104 102.112,3.692 C102.420291,3.93461888 102.714126,4.19506371 102.992,4.472 C105.726792,7.19682101 106.557937,11.297345 105.1,14.872 L97.972,31.14 L108.72,26.456 C108.836,26.4 111.8,25.044 113.584,26.896 L113.864,27.192 L95.6,35.2 Z M97.656,31.912 L96.696,34.1 L112.88,27.02 C111.348,25.896 108.996,26.968 108.972,26.98 L97.656,31.912 Z M103.312,5.68 C104.382071,8.06324224 104.429771,10.7806712 103.444,13.2 L95.016,32.432 L97.2,31.476 L104.576,14.648 C105.798136,11.6488845 105.315481,8.2244789 103.312,5.68 L103.312,5.68 Z M94.552,0.563907685 C92.1499642,0.553104098 89.8441412,1.50713837 88.152,3.212 C85.352,6.012 84.972,9.824 86.896,13.632 C86.7002305,12.8551428 86.6008166,12.0571443 86.6,11.256 C86.6007538,7.99874039 88.2530963,4.96406044 90.9886396,3.19585697 C93.7241829,1.42765349 97.1697111,1.16716625 100.14,2.504 C98.5504966,1.24368813 96.580519,0.559766054 94.552,0.563907685 Z" id="Shape" fill="#22CBFF"></path>
                    <path d="M90.632,41.6 L89.504,39.54 L87.444,38.4 L89.504,37.272 L90.632,35.212 L91.76,37.272 L93.82,38.4 L91.76,39.528 L90.632,41.6 Z M88.632,38.4 L89.928,39.112 L90.64,40.408 L91.348,39.112 L92.64,38.4 L91.34,37.692 L90.632,36.4 L89.92,37.7 L88.632,38.4 Z" id="Shape" fill="#22CBFF"></path>
                    <path d="M47.26,119.144 C46.5732645,119.164356 45.9087673,118.899377 45.4244768,118.412055 C44.9401863,117.924733 44.6793589,117.258595 44.704,116.572 C44.6786859,115.880714 44.9441812,115.210447 45.436,114.724 C45.9208323,114.246008 46.5794,113.986047 47.26,114.004 C48.0156545,113.985222 48.7276674,114.357101 49.144,114.988 L48.624,115.276 C48.4731716,115.058943 48.273032,114.880736 48.04,114.756 C47.8017737,114.622744 47.5329545,114.553816 47.26,114.556 C46.743904,114.541796 46.2462563,114.748421 45.892,115.124 C45.1611825,115.952539 45.1611825,117.195461 45.892,118.024 C46.2462563,118.399579 46.743904,118.606204 47.26,118.592 C47.8067737,118.592507 48.3180197,118.321142 48.624,117.868 L49.152,118.16 C48.7274428,118.785867 48.0161879,119.15578 47.26,119.144 L47.26,119.144 Z" id="Path" fill="#22CBFF"></path>
                    <polygon id="Path" fill="#22CBFF" points="55.088 119.052 54.468 119.052 54.468 116.776 51.564 116.776 51.564 119.052 50.944 119.052 50.944 114.084 51.564 114.084 51.564 116.224 54.468 116.224 54.468 114.084 55.088 114.084"></polygon>
                    <polygon id="Path" fill="#22CBFF" points="57.876 119.052 57.256 119.052 57.256 114.084 57.876 114.084"></polygon>
                    <polygon id="Path" fill="#22CBFF" points="62.968 119.052 60.04 119.052 60.04 114.084 60.66 114.084 60.66 118.504 62.968 118.504"></polygon>
                    <polygon id="Path" fill="#22CBFF" points="67.776 119.052 64.848 119.052 64.848 114.084 65.464 114.084 65.464 118.504 67.776 118.504"></polygon>
                    <path d="M70.4,118.876 C70.399158,119.096327 70.3412796,119.312682 70.232,119.504 C70.1215748,119.698242 69.9716904,119.867203 69.792,120 L69.516,119.768 C69.6437659,119.685044 69.7538758,119.577652 69.84,119.452 C69.9227671,119.341342 69.9776496,119.212368 70,119.076 C69.9658134,119.084159 69.9301866,119.084159 69.896,119.076 C69.7988802,119.079706 69.705118,119.04015 69.64,118.968 C69.5723893,118.893621 69.5352599,118.796513 69.536,118.696 C69.5353853,118.589679 69.5771254,118.487488 69.652,118.412 C69.7242243,118.334289 69.8259169,118.290707 69.932,118.292 C70.0594586,118.292188 70.1805726,118.347638 70.264,118.444 C70.3640277,118.564704 70.4128425,118.719763 70.4,118.876 Z" id="Path" fill="#22CBFF"></path>
                    <path d="M76.908,119.144 C76.1838093,119.179229 75.4825083,118.885183 75,118.344 L75.364,117.876 C75.7523789,118.335132 76.3267378,118.595136 76.928,118.584 C77.2454766,118.611454 77.5618598,118.520244 77.816,118.328 C77.9930925,118.178567 78.0966938,117.959691 78.1,117.728 C78.10387,117.565714 78.0451459,117.408162 77.936,117.288 C77.8183356,117.164867 77.6749168,117.069254 77.516,117.008 C77.3277618,116.93546 77.1354317,116.874021 76.94,116.824 C76.728,116.772 76.54,116.712 76.312,116.644 C76.1139423,116.581218 75.9223914,116.499508 75.74,116.4 C75.3689126,116.196974 75.1432301,115.802803 75.156,115.38 C75.1505633,114.994556 75.330626,114.629966 75.64,114.4 C75.9894779,114.129154 76.4220231,113.987799 76.864,114 C77.5240319,113.967008 78.1664544,114.219024 78.628,114.692 L78.256,115.144 C77.8860685,114.744577 77.3600043,114.526845 76.816,114.548 C76.554543,114.539587 76.2974984,114.616841 76.084,114.768 C75.9002413,114.900101 75.7926899,115.11371 75.796,115.34 C75.796941,115.510676 75.8785162,115.67086 76.016,115.772 C76.1778884,115.892828 76.3631486,115.978647 76.56,116.024 C76.776,116.08 77.012,116.148 77.268,116.228 C77.524,116.308 77.76,116.396 77.976,116.492 C78.1938188,116.58672 78.3818382,116.738795 78.52,116.932 C78.670979,117.148602 78.7481261,117.408097 78.74,117.672 C78.7451898,118.066237 78.5805255,118.443654 78.288,118.708 C77.9002691,119.023697 77.4067288,119.179627 76.908,119.144 L76.908,119.144 Z" id="Path" fill="#22CBFF"></path>
                    <polygon id="Path" fill="#22CBFF" points="85.14 119.052 84.468 119.052 83.372 115.052 82.28 119.052 81.6 119.052 80.184 114.084 80.868 114.084 82 118.228 83.14 114.084 83.656 114.084 84.792 118.228 85.888 114.084 86.576 114.084"></polygon>
                    <polygon id="Path" fill="#22CBFF" points="88.872 119.052 88.252 119.052 88.252 114.084 88.872 114.084"></polygon>
                    <polygon id="Path" fill="#22CBFF" points="95.904 119.052 95.284 119.052 95.284 114.964 93.6 119.052 93.348 119.052 91.664 114.964 91.664 119.052 91.04 119.052 91.04 114.084 91.924 114.084 93.468 117.824 95.016 114.084 95.904 114.084"></polygon>
                    <path d="M104.984,119.052 L104.208,119.052 C104.06,118.924 103.88,118.752 103.664,118.532 C103.292904,118.924398 102.776078,119.145895 102.236,119.144 C101.833077,119.160158 101.43753,119.032562 101.12,118.784 C100.599364,118.281004 100.537486,117.467997 100.976,116.892 C101.204118,116.643075 101.475085,116.43714 101.776,116.284 C101.554702,115.949765 101.423781,115.563893 101.396,115.164 C101.389526,114.851016 101.521213,114.551064 101.756,114.344 C101.998719,114.12134 102.318767,114.002219 102.648,114.012 C102.936375,114.001328 103.219394,114.091894 103.448,114.268 C103.658658,114.446163 103.774054,114.712462 103.76,114.988 C103.762263,115.152985 103.729545,115.316577 103.664,115.468 C103.592085,115.623516 103.485327,115.760385 103.352,115.868 C103.231315,115.964924 103.105822,116.055706 102.976,116.14 C102.868,116.204 102.708,116.288 102.496,116.4 C102.652,116.616 102.844,116.852 103.068,117.108 C103.292,117.364 103.444,117.54 103.656,117.768 C103.888167,117.418402 104.068693,117.037143 104.192,116.636 L104.676,116.844 C104.49573,117.294251 104.269181,117.724559 104,118.128 C104.264,118.372 104.588,118.688 104.984,119.052 Z M102.288,118.68 C102.687395,118.66526 103.063287,118.487434 103.328,118.188 C103,117.848 102.772,117.596 102.644,117.436 C102.422539,117.180112 102.214268,116.913099 102.02,116.636 C101.812701,116.755726 101.629567,116.913086 101.48,117.1 C101.34974,117.275458 101.28213,117.489554 101.288,117.708 C101.275566,117.975277 101.38431,118.233912 101.584,118.412 C101.776091,118.587538 102.027806,118.683361 102.288,118.68 L102.288,118.68 Z M101.98,115.172 C102.003494,115.478644 102.106929,115.773778 102.28,116.028 C102.543994,115.909061 102.790316,115.754268 103.012,115.568 C103.175848,115.428659 103.268376,115.223042 103.264,115.008 C103.268925,114.857372 103.209248,114.711817 103.1,114.608 C102.981162,114.509531 102.830226,114.45827 102.676,114.464 C102.490531,114.459368 102.311774,114.533487 102.184,114.668 C102.058161,114.804894 101.991959,114.98623 102,115.172 L101.98,115.172 Z" id="Shape" fill="#22CBFF"></path>
                    <path d="M111.404,119.052 L109.708,119.052 L109.708,114.084 L111.404,114.084 C112.090107,114.05496 112.757625,114.311252 113.248,114.792 C113.719363,115.262028 113.974338,115.906711 113.952,116.572 C113.974338,117.237289 113.719363,117.881972 113.248,118.352 C112.755503,118.828599 112.088702,119.081723 111.404,119.052 L111.404,119.052 Z M111.404,118.504 C111.927166,118.529943 112.436053,118.328721 112.8,117.952 C113.479779,117.156056 113.479779,115.983944 112.8,115.188 C112.436025,114.808845 111.924796,114.607275 111.4,114.636 L110.32,114.636 L110.32,118.504 L111.404,118.504 Z" id="Shape" fill="#22CBFF"></path>
                    <path d="M119.532,119.052 L118.8,119.052 L117.532,117.08 L116.54,117.08 L116.54,119.052 L115.924,119.052 L115.924,114.084 L117.924,114.084 C118.336931,114.062695 118.741362,114.206621 119.048,114.484 C119.348445,114.774811 119.506334,115.182693 119.48,115.6 C119.497798,115.976128 119.363764,116.343641 119.108,116.62 C118.86468,116.868437 118.538862,117.019252 118.192,117.044 L119.532,119.052 Z M117.848,116.536 C118.113107,116.547283 118.371458,116.450582 118.564,116.268 C118.747787,116.088751 118.847916,115.840603 118.84,115.584 C118.849428,115.32713 118.74906,115.078392 118.564,114.9 C118.369847,114.720433 118.112251,114.625453 117.848,114.636 L116.544,114.636 L116.544,116.536 L117.848,116.536 Z" id="Shape" fill="#22CBFF"></path>
                    <polygon id="Path" fill="#22CBFF" points="124.716 119.052 121.46 119.052 121.46 114.084 124.716 114.084 124.716 114.636 122.08 114.636 122.08 116.236 124.664 116.236 124.664 116.8 122.08 116.8 122.08 118.516 124.716 118.516"></polygon>
                    <path d="M130.96,119.052 L130.252,119.052 L129.812,117.952 L127.34,117.952 L126.9,119.052 L126.192,119.052 L128.192,114.084 L128.96,114.084 L130.96,119.052 Z M129.624,117.4 L128.576,114.724 L127.516,117.4 L129.624,117.4 Z" id="Shape" fill="#22CBFF"></path>
                    <polygon id="Path" fill="#22CBFF" points="137.476 119.052 136.86 119.052 136.86 114.964 135.168 119.052 134.916 119.052 133.232 114.964 133.232 119.052 132.612 119.052 132.612 114.084 133.5 114.084 135.04 117.824 136.592 114.084 137.476 114.084"></polygon>
                </g>
            </g>
        </g>
    </g>
</svg>