<?xml version="1.0" encoding="UTF-8"?>
<svg width="60px" height="60px" viewBox="0 0 60 60" version="1.1" xmlns="http://www.w3.org/2000/svg" xmlns:xlink="http://www.w3.org/1999/xlink">
    <title>1dark</title>
    <g id="Design" stroke="none" stroke-width="1" fill="none" fill-rule="evenodd">
        <g id="Привязка-XL" transform="translate(-60.000000, -15.000000)" fill="#22CBFF" fill-rule="nonzero">
            <g id="Group-4">
                <g id="Group-10" transform="translate(60.000000, 15.000000)">
                    <g id="1dark">
                        <path d="M30.9026148,25.3070796 L29.9938056,22.9776745 L29.0818947,25.3070796 L22.7543493,9.10360077 C21.7886359,6.81582949 19.6804672,5.2131488 17.2177472,4.89454243 C13.6467049,5.36459595 11.015121,8.46761711 11.134582,12.0674813 C11.2540429,15.6673456 14.0855573,18.5890746 17.6799061,18.8213457 C17.8318913,18.8213457 17.9900799,18.8213457 18.1389633,18.8213457 L18.1389633,19.2617924 C17.9714695,19.2617924 17.8039756,19.255589 17.6364818,19.243182 C12.3635273,18.982636 8.87407217,16.0421885 8.87407217,11.8207232 C8.87500285,9.68862371 9.79009503,7.65926111 11.3874039,6.24700992 C12.9847128,4.83475874 15.1109011,4.17519118 17.2270524,4.43548521 C17.5295696,4.39796939 17.8341289,4.3793229 18.1389633,4.3796496 C21.1291646,4.38012606 23.8288715,6.16975076 24.9938041,8.92369997 L29.9969073,21.7742001 L33.3188687,13.3126591 C33.3529878,13.2165052 34.2183726,10.8871001 36.1817727,10.8871001 L36.2282988,10.8871001 L36.5384726,10.8871001 L30.9026148,25.3070796 Z M18.9640256,4.88213547 C20.8568894,5.6067875 22.3724374,7.07192925 23.160677,8.93920866 L29.0818947,24.1036053 L29.776684,22.3759373 L24.5781712,9.10360077 C23.6008061,6.79025298 21.4577756,5.17883618 18.9640256,4.88213547 L18.9640256,4.88213547 Z M30.2295377,22.3759373 L30.9057166,24.1005036 L35.8964129,11.3461573 C34.4354943,11.5725842 33.7251963,13.4460338 33.7251963,13.467746 L30.2295377,22.3759373 Z M15.4807739,4.88213547 C11.9595194,5.30425778 9.30824851,8.2897672 9.30521374,11.8362319 C9.30521374,14.9100541 11.1972739,17.2146454 14.3548431,18.2444224 C11.8942915,16.7910637 10.4829152,14.057434 10.7228616,11.209805 C10.9628081,8.36217598 12.8117175,5.90326393 15.4807739,4.88213547 L15.4807739,4.88213547 Z" id="Shape"></path>
                        <path d="M7.1339972,34.0044046 C5.33996713,34.0114454 3.61975516,33.2906799 2.36662603,32.0068335 C0.859647012,30.49838 0.07184834,28.4161337 0.202933113,26.2879338 C0.334017886,24.159734 1.3714007,22.1899083 3.05211011,20.8777979 C3.24525481,20.6383026 3.45239921,20.4104438 3.67245769,20.1954155 C5.7849656,18.0739973 8.96514696,17.429399 11.7369763,18.5607997 L24.3579478,24.0911984 L20.6854901,15.7568286 C20.6420658,15.6668782 19.5905767,13.3684904 21.029783,11.9851153 L21.2562099,11.7679936 L27.4596857,25.9491394 L25.1706032,24.9441763 L26.1693628,27.2363606 L10.2357351,20.2543486 C7.93644696,19.3162323 5.31185471,19.6705877 3.34367347,21.1848699 C1.14238465,24.0423027 1.47255187,28.1045794 4.1063843,30.569031 C6.74021673,33.0334825 10.8154498,33.0932964 13.5204756,30.7072053 C13.6321381,30.6079497 13.7438007,30.5024906 13.8554633,30.3970315 L14.165637,30.7072053 C14.047771,30.8250714 13.9268032,30.9398357 13.8027337,31.0483965 C11.6439241,33.0086949 9.30521374,34.0044046 7.1339972,34.0044046 Z M2.11228352,22.4131582 C-0.0777738382,25.2015201 0.157852107,29.1858617 2.66129113,31.6966597 C4.83250767,33.8678763 7.80397259,34.1594396 10.7661323,32.6581985 C8.00067816,33.3686668 5.0725197,32.4347683 3.22907627,30.2543513 C1.38563285,28.0739344 0.951757055,25.0312332 2.11228352,22.4224634 L2.11228352,22.4131582 Z M7.61166484,19.3114202 C8.56851961,19.3133471 9.51613673,19.4986589 10.403229,19.8573261 L25.3101814,26.3926879 L24.568866,24.6929355 L11.5322616,18.9640256 C9.20450911,18.0181903 6.54817804,18.3947901 4.57506342,19.9503783 C5.53044443,19.5232473 6.56514981,19.3023551 7.61166484,19.302115 L7.61166484,19.3114202 Z M24.9131589,24.3610496 L26.6098095,25.1054667 L21.1197334,12.5558351 C20.2450434,13.7469024 21.0763091,15.5676226 21.0856143,15.586233 L24.9131589,24.3610496 Z" id="Shape"></path>
                        <path d="M12.0099292,50.8685018 C9.87782972,50.8675711 7.84846712,49.9524789 6.43621594,48.35517 C5.02396476,46.7578611 4.36439719,44.6316728 4.62469123,42.5155216 C4.5871754,42.2130043 4.56852891,41.908445 4.56885561,41.6036106 C4.56933207,38.6134093 6.35895678,35.9137024 9.11290599,34.7487698 L21.9478975,29.7456666 L13.4832547,26.4206035 C13.3871008,26.3864844 11.0204748,25.4900822 11.0607974,23.5111734 L11.0607974,23.2009996 L25.4776752,28.8461626 L23.1513718,29.7549718 L25.4776752,30.6699845 L9.2772981,36.9944281 C6.98952691,37.9608277 5.38615387,40.0683541 5.06513801,42.5310303 C5.52665552,46.1089816 8.63159792,48.7503408 12.2372609,48.6323197 C15.8429239,48.5142987 18.7684906,45.6755481 18.995043,42.0750748 C18.995043,41.9230896 18.995043,41.764901 18.995043,41.6160176 L19.432388,41.6160176 C19.432388,41.7835114 19.432388,41.9510053 19.432388,42.1184991 C19.1687403,47.3728431 16.2313945,50.8685018 12.0099292,50.8685018 Z M5.0558328,44.2586983 C5.4779551,47.7799528 8.46346452,50.4312237 12.0099292,50.4342585 C15.0837515,50.4342585 17.3883427,48.5421983 18.4181197,45.3877309 C16.9642381,47.8480993 14.2301943,49.2589611 11.3825127,49.0183492 C8.53483111,48.7777373 6.07627711,46.9281323 5.0558328,44.2586983 Z M22.5496346,29.9907039 L9.2772981,35.1706062 C6.96395031,36.1479713 5.3525335,38.2910018 5.0558328,40.7847518 C5.78048482,38.891888 7.24562658,37.37634 9.11290599,36.5881004 L24.2742009,30.6668827 L22.5496346,29.9907039 Z M11.5198546,23.8430593 C11.7431797,25.3039779 13.6197312,26.0142759 13.6383416,26.0142759 L22.5496346,29.5099345 L24.2742009,28.8461626 L11.5198546,23.8430593 Z" id="Shape"></path>
                        <path d="M26.9168816,59.5534031 C24.6244559,59.5564549 22.4593428,58.4996599 21.0514952,56.6904638 C20.8099415,56.5041527 20.5809491,56.3021005 20.3660111,56.0856249 C18.2456694,53.9724177 17.6023121,50.7923248 18.734497,48.0211064 L24.2648957,35.4001348 L15.9305259,39.0353716 C15.8405755,39.078796 13.5421877,40.1302851 12.1588126,38.6910787 L11.941691,38.4646518 L26.119735,32.261176 L25.1240771,34.568869 L27.4162614,33.5701094 L20.4311476,49.4975336 C19.4949817,51.7970696 19.8492015,54.4206578 21.361669,56.3895952 C24.2163377,58.6226436 28.3033628,58.3076792 30.7821789,55.6636087 C33.260995,53.0195382 33.3118997,48.9207108 30.8995131,46.2158949 L30.5893393,45.871602 L30.8995131,45.5614282 C31.0204809,45.682396 31.1383469,45.8064655 31.2500095,45.9367385 C34.7766855,49.8418265 35.1706062,54.3889743 32.1805308,57.3728462 C30.788058,58.774162 28.8923891,59.5594627 26.9168816,59.5534031 Z M22.5744485,57.6147817 C25.3615863,59.8163155 29.3553856,59.5830329 31.8672553,57.0719776 C34.0384718,54.900761 34.3300352,51.9417031 32.841201,48.9888486 C32.9918074,49.5914093 33.0678521,50.2101838 33.0676279,50.8312809 C33.0657377,53.3533715 31.7869614,55.7029824 29.6700435,57.0739686 C27.5531255,58.4449548 24.8860014,58.6508399 22.5837537,57.6209852 L22.5744485,57.6147817 Z M24.8480224,35.148894 L19.1377229,48.2103124 C18.1922355,50.536641 18.567596,53.1913988 20.1209738,55.1644088 C19.2944014,53.3132762 19.2585557,51.2051012 20.0217182,49.326938 L26.55708,34.4292908 L24.8480224,35.148894 Z M12.7171254,38.6197387 C13.9081928,39.4944288 15.728913,38.6631631 15.7475234,38.6538579 L24.5223399,34.8263133 L25.2636553,33.1296626 L12.7171254,38.6197387 Z" id="Shape"></path>
                        <path d="M43.6073333,55.1706181 C43.3025018,55.1708475 42.9979484,55.1522014 42.6954224,55.114781 C42.3929051,55.1522968 42.0883458,55.1709433 41.7835114,55.1706181 C38.7933101,55.1701401 36.0936032,53.3805154 34.9286706,50.6265662 L29.9162622,37.7915747 L26.5943009,46.2562175 C26.5601817,46.3523714 25.6823899,48.7034887 23.681769,48.6817765 L23.3715952,48.6817765 L29.0136564,34.2680005 L29.9193639,36.5943039 L30.8498853,34.2680005 L37.1774306,50.4683776 C38.1427957,52.7569516 40.2508589,54.360733 42.7140328,54.6805377 C46.279448,54.2042653 48.9043566,51.104512 48.7866794,47.5093523 C48.6690022,43.9141926 45.8470063,40.9927281 42.2580773,40.7506327 L41.7990201,40.735124 L41.7990201,40.2915755 C41.966514,40.2915755 42.1340078,40.2915755 42.3015016,40.2915755 C47.5744561,40.5552232 51.0608153,43.4956707 51.0608153,47.717136 C51.063283,49.6946781 50.2788026,51.5919364 48.8804681,52.9902709 C47.4821337,54.3886053 45.5848753,55.1730857 43.6073333,55.1706181 L43.6073333,55.1706181 Z M45.5583265,41.3213525 C48.018878,42.7747111 49.4302543,45.5083408 49.1903079,48.3559699 C48.9503614,51.2035989 47.101452,53.6625109 44.4323956,54.6836394 C47.9524772,54.2616594 50.6033531,51.2779261 50.6079558,47.7326447 C50.6079558,44.6650259 48.7158956,42.3511295 45.5583265,41.3213525 Z M30.1519942,37.1898376 L35.3349983,50.4621741 C36.3112858,52.7737524 38.4515055,54.384836 40.9429404,54.6836394 C39.0500766,53.9589874 37.5345286,52.4938456 36.746289,50.6265662 L30.8312748,35.4652713 L30.1519942,37.1898376 Z M29.007453,35.4652713 L24.0167567,48.2196176 C25.4745735,47.9962925 26.1879732,46.119741 26.1879732,46.1011306 L29.6836318,37.1898376 L29.007453,35.4652713 Z" id="Shape"></path>
                        <path d="M38.6569596,47.800883 L32.4534838,33.6197372 L34.7425664,34.6247003 L33.740705,32.3294143 L49.6712309,39.314528 C51.9709313,40.2493974 54.5938528,39.8952676 56.5632926,38.3840067 C58.7886917,35.5294743 58.4711916,31.449206 55.8310108,28.9732816 C53.1908299,26.4973572 49.0985985,26.4422414 46.392694,28.8461626 L46.0577063,29.1563364 L45.7475325,28.8461626 C45.8653985,28.7282965 45.9863663,28.6135322 46.1104358,28.5049714 C50.0186256,24.9689902 54.5719768,24.5719677 57.5589504,27.57445 C60.4617144,30.4808286 60.4617144,35.1891665 57.5589504,38.095545 C57.3428605,38.3156348 57.1139677,38.5227775 56.8734664,38.7158926 C56.6853614,38.95596 56.483405,39.1848439 56.2686275,39.4013767 C54.1532459,41.5174495 50.9765036,42.1613507 48.2041089,41.0359926 L35.5862391,35.5024921 L39.2183742,43.8368619 C39.2617985,43.9299141 40.3163894,46.2252001 38.877183,47.6085752 L38.6569596,47.800883 Z M33.30336,34.4634099 L38.7934361,47.0099398 C39.6650244,45.8219742 38.8368604,43.9981523 38.8275552,43.9795419 L35.0000106,35.2047253 L33.30336,34.4634099 Z M35.3349983,34.8728393 L48.3871114,40.6017493 C50.7148639,41.5475845 53.3711949,41.1709848 55.3443096,39.6153966 C53.4942434,40.4458486 51.3848819,40.4828353 49.5068388,39.717754 L34.5905812,33.1885957 L35.3349983,34.8728393 Z M51.0111817,26.674946 C53.5324234,26.677305 55.8811262,27.955665 57.2519369,30.0716857 C58.6227475,32.1877064 58.8293441,34.8537759 57.800886,37.1557185 C59.9909434,34.3673565 59.7553174,30.3830149 57.2518784,27.8722169 C55.0806618,25.7010003 52.1091969,25.3908265 49.1470372,26.9106781 C49.7559678,26.7536796 50.3823377,26.6744715 51.0111817,26.674946 Z" id="Shape"></path>
                        <path d="M48.8461686,36.3709788 L34.4292908,30.7320192 L36.758696,29.82321 L34.4323926,28.8926887 L50.6327697,22.568245 C52.9131288,21.6066217 54.5159386,19.5120004 54.8480315,17.0595585 C54.3717591,13.4941433 51.2720059,10.8692347 47.6768462,10.9869119 C44.0816865,11.1045891 41.160222,13.926585 40.9181265,17.515514 C40.9181265,17.6674991 40.9181265,17.8256878 40.9026178,17.9745712 L40.4652728,17.9745712 C40.4652728,17.8070774 40.4652728,17.6395835 40.4807815,17.4751914 C40.7413275,12.2022369 43.681775,8.7127818 47.9032403,8.7127818 C52.0145424,8.7127818 55.3474156,12.0456507 55.3474156,16.1569528 C55.3477423,16.4617872 55.3290958,16.7663465 55.29158,17.0688637 C55.6925799,20.3653988 53.8615685,23.5288601 50.8033653,24.8232085 L37.965272,29.82321 L46.4299148,33.1451713 C46.5229669,33.1792904 48.8926947,34.0756927 48.8523721,36.0577032 L48.8461686,36.3709788 Z M35.6389686,30.7320192 L48.3871114,35.7227155 C48.1637863,34.2648987 46.2872349,33.551499 46.2686244,33.551499 L37.3635349,30.0589421 L35.6389686,30.7320192 Z M35.6389686,28.9081973 L37.3635349,29.5874779 L50.6358714,24.4044739 C52.9500451,23.4281669 54.5618818,21.284578 54.8573367,18.7903283 C54.1333913,20.6843638 52.6681558,22.201129 50.8002635,22.9900814 L35.6389686,28.9081973 Z M47.9032403,10.5148915 C50.9907699,10.5155832 53.7574044,12.4221177 54.8573367,15.3070766 C54.4352144,11.785822 51.449705,9.13455119 47.9032403,9.13151641 C44.829418,9.13151641 42.5248268,11.0266783 41.4950498,14.1811457 C42.8319539,11.9112998 45.2689457,10.517048 47.9032403,10.5148915 L47.9032403,10.5148915 Z" id="Shape"></path>
                        <path d="M33.8089432,27.2952936 L34.8108046,25.0031114 L32.5186203,26.0049707 L39.4851236,10.0682413 C40.4232399,7.76895311 40.0688845,5.14436086 38.5546022,3.17617962 C35.6994688,0.984646128 31.6480501,1.31397591 29.1843504,3.93786416 C26.7206507,6.5617524 26.6468477,10.6258643 29.0136564,13.337473 C29.1191155,13.4522373 29.2276763,13.5670016 29.3238302,13.6786642 L29.0136564,13.988838 C28.8926887,13.8678702 28.7748226,13.7438007 28.66316,13.6166294 C25.1333823,9.7115414 24.7425633,5.16129189 27.7326387,2.18052175 C29.2405897,0.67426287 31.3218495,-0.11338651 33.4492206,0.0170906682 C35.5765917,0.147567847 37.545997,1.18365501 38.8585726,2.86290409 C39.0976322,3.05103914 39.3254822,3.25299704 39.5409549,3.46774299 C41.6616071,5.58066314 42.3061053,8.76035086 41.1755708,11.5322616 L35.6482738,24.1470296 L43.9826436,20.5148946 C44.072594,20.4714702 46.3709818,19.4199811 47.7543569,20.8560857 L47.9714786,21.0856143 L33.8089432,27.2952936 Z M35.4032365,24.7456651 L34.6588194,26.4423157 L47.208451,20.9522396 C46.0204854,20.0806512 44.1966635,20.911917 44.1780531,20.9212222 L35.4032365,24.7456651 Z M39.7890939,4.40446784 C40.618864,6.25251604 40.6558519,8.35970412 39.8914513,10.2357351 L33.3560895,25.148891 L35.0496384,24.4075756 L40.7692431,11.3585642 C41.7169297,9.0329467 41.3426625,6.37754451 39.7890939,4.40446784 L39.7890939,4.40446784 Z M32.9962879,0.437273461 C31.1336665,0.428895988 29.3456518,1.16868706 28.0335073,2.49069554 C25.8622907,4.66191208 25.5676256,7.61786831 27.0595615,10.5707228 C26.9077552,9.96832094 26.8306662,9.34952537 26.8300329,8.72829049 C26.8306175,6.20249908 28.1119008,3.84930362 30.2331354,2.47817768 C32.35437,1.10705174 35.0261513,0.905060949 37.3294158,1.94168793 C36.09686,0.964398656 34.5692715,0.434061898 32.9962879,0.437273461 Z" id="Shape"></path>
                        <path d="M29.9565848,32.2580743 L29.0818947,30.6606793 L27.4844996,29.776684 L29.0818947,28.9019939 L29.9565848,27.3045988 L30.8312748,28.9019939 L32.4286699,29.776684 L30.8312748,30.651374 L29.9565848,32.2580743 Z M28.4057158,29.776684 L29.4106789,30.3287933 L29.9627882,31.3337564 L30.5117958,30.3287933 L31.5136572,29.776684 L30.5055924,29.2276763 L29.9565848,28.225815 L29.4044754,29.2338798 L28.4057158,29.776684 Z" id="Shape"></path>
                    </g>
                </g>
            </g>
        </g>
    </g>
</svg>